<svg xmlns="http://www.w3.org/2000/svg" width="20" height="15.627" viewBox="0 0 20 15.627"><path d="M0,8.312V7.687a.937.937,0,0,1,.938-.937H15V4.874a.938.938,0,0,1,1.6-.663l3.125,3.125a.938.938,0,0,1,0,1.326L16.6,11.787a.938.938,0,0,1-1.6-.663V9.249H.938A.937.937,0,0,1,0,8.312Zm19.062,5.937H5V12.374a.938.938,0,0,0-1.6-.663L.275,14.836a.938.938,0,0,0,0,1.326L3.4,19.287A.938.938,0,0,0,5,18.624V16.749H19.062A.938.938,0,0,0,20,15.812v-.625A.938.938,0,0,0,19.062,14.249Z" transform="translate(0 -3.936)"/></svg>