<svg xmlns="http://www.w3.org/2000/svg" xmlns:xlink="http://www.w3.org/1999/xlink" width="330.348" height="350" viewBox="0 0 330.348 350"><defs><clipPath id="a"><rect width="330.348" height="350" transform="translate(462 366)" fill="#fff"/></clipPath></defs><g transform="translate(-462 -366)" clip-path="url(#a)"><path d="M593.531,731.528a21.578,21.578,0,0,0,29.123,5.541l87.333-55.877a26.545,26.545,0,1,0-30.683-43.251l-81.594,63.967A21.581,21.581,0,0,0,593.531,731.528Z" transform="translate(-67.811 -141.687)" fill="#ffc999" fill-rule="evenodd"/><path d="M700.288,714.874l55.474-35.186c11.714-9.105,11.72-32.46,2.408-44.01a26.528,26.528,0,0,0-37.667-3.7l-52,43.477S684.064,706.884,700.288,714.874Z" transform="translate(-109.877 -138.236)" fill="#fff" fill-rule="evenodd"/><path d="M511.825,576.967a12.48,12.48,0,0,0-5.958,15.449l38.8,103.986a21.562,21.562,0,1,0,38.908-18.261l-55.194-96.294A12.478,12.478,0,0,0,511.825,576.967Z" transform="translate(-22.92 -111.509)" fill="#ffc999" fill-rule="evenodd"/><path d="M909.768,554.505l-14.047-15.33,4.428-50.453,39.282,3.659-.2,49.926Z" transform="translate(-230.777 -65.299)" fill="#ffc999" fill-rule="evenodd"/><path d="M873.118,473.893s-5.831-6.414-8.493-2.3,1.32,19.246,7.832,19.833C881.155,492.212,873.118,473.893,873.118,473.893Z" transform="translate(-213.786 -55.452)" fill="#ffc999" fill-rule="evenodd"/><path d="M915.825,475.289s-13.123,10.093-29.762-.819c-11.979-7.856-12.651-34.981-9.687-54.783,1.677-11.206,7.05-17.1,18.117-20.085s40.8-2.182,39.97,30.919C933.532,467.389,915.825,475.289,915.825,475.289Z" transform="translate(-219.696 -17.283)" fill="#ffc999" fill-rule="evenodd"/><path d="M914.786,456.2l-.108.014a.6.6,0,0,0-.473.612l.014.108,1.525,6.92-4.3,18.615a.6.6,0,0,0,.464.727l.1.012,7.927.313a.6.6,0,0,0,.146-1.195l-.1-.012-7.2-.285,4.166-18.039a.6.6,0,0,0,.014-.177l-.013-.088-1.554-7.051A.6.6,0,0,0,914.786,456.2Z" transform="translate(-239.134 -47.995)" fill="#dd936f"/><path d="M934.878,451.252a1.61,1.61,0,0,0,1.37,1.818l5.291.772.68.1c5.159.725,8.294.985,10.17.673a1.61,1.61,0,0,0-.374-3.194l-.458.058a38.69,38.69,0,0,1-7.512-.537l-2.4-.335-4.945-.722A1.609,1.609,0,0,0,934.878,451.252Z" transform="translate(-251.603 -44.624)" fill="#253368"/><path d="M925.669,524.173a.843.843,0,0,0-1.007-.637l-.3.059-.119.022c-.363.064-.79.128-1.28.188a45.453,45.453,0,0,1-11.829-.23.843.843,0,1,0-.238,1.669,47.121,47.121,0,0,0,12.272.234l.593-.079q.282-.04.532-.081l.594-.107.146-.031A.842.842,0,0,0,925.669,524.173Z" transform="translate(-238.465 -83.811)" fill="#ff7946"/><path d="M929.761,427.455l6.831-12.556s4.637-18.259.618-26.294c-6.235-12.468-21.359-12.589-30.234-16.13s-8.7-6.559-12.353-6.164-18.038,9.8-19.927,20.028c-1.661,8.992-.047,32.077-.047,32.077s3.148-20.306,5.273-25.631c7.2-2.757,33.037-2.133,43.72,1.512,0,0,.728,6.967,1.121,11.871C930.414,410.468,929.761,427.455,929.761,427.455Z" transform="translate(-219.191 -0.147)" fill="#253368" fill-rule="evenodd"/><path d="M897.111,558.165a.6.6,0,1,0-.916.787,9.245,9.245,0,0,0,.952.913,17.241,17.241,0,0,0,2.808,1.932c5.916,3.3,13.823,4,23.794.5a.6.6,0,0,0-.4-1.139c-9.644,3.378-17.192,2.712-22.807-.419a16.088,16.088,0,0,1-2.612-1.8l-.289-.254A6.547,6.547,0,0,1,897.111,558.165Z" transform="translate(-230.952 -102.136)" fill="#dd936f"/><path d="M917.7,470a1.207,1.207,0,0,0-.3,2.392l.131.016,5.826.413a1.207,1.207,0,0,0,.3-2.392l-.13-.016Z" transform="translate(-241.782 -55.334)" fill="#253368"/><path d="M922.157,477.77a7.15,7.15,0,0,0-3.7-.749,4.684,4.684,0,0,0-2.787,1.256,1.207,1.207,0,0,0,1.647,1.765,2.273,2.273,0,0,1,1.377-.618,4.874,4.874,0,0,1,2.447.535,6.677,6.677,0,0,1,.985.551,1.207,1.207,0,0,0,1.4-1.967A8.96,8.96,0,0,0,922.157,477.77Z" transform="translate(-241.186 -59.059)" fill="#253368"/><path d="M894.443,446.743a19.162,19.162,0,0,0-8.3-1.567,11.176,11.176,0,0,0-5.229,1.6,1.61,1.61,0,1,0,1.689,2.741,7.979,7.979,0,0,1,3.744-1.13,16.117,16.117,0,0,1,6.892,1.34c.6.242,1.163.5,1.68.756l.379.194c.363.19.613.333.733.407a1.609,1.609,0,1,0,1.686-2.742l-.343-.2A24.468,24.468,0,0,0,894.443,446.743Z" transform="translate(-222.491 -42.113)" fill="#253368"/><path d="M918.359,536.667a.6.6,0,0,0-.168,1.192l.1.014,4.75.277a.6.6,0,0,0,.167-1.192l-.1-.014Z" transform="translate(-242.482 -90.809)" fill="#dd936f"/><path d="M976.289,473.461a1.207,1.207,0,0,0-.257,2.4l.13.014,9.56.5a1.207,1.207,0,0,0,.258-2.4l-.131-.014Z" transform="translate(-272.97 -57.178)" fill="#253368"/><path d="M952.672,470.707l-18.251-1.059a2.3,2.3,0,0,0-2.432,2.168,57,57,0,0,0,.221,9.5c.506,3.89,3.829,6.448,7.733,6.856,4.875.511,9.261.769,11.626-1.639,3.6-3.669,3.147-10.08,3.27-13.453A2.308,2.308,0,0,0,952.672,470.707Z" transform="translate(-250.023 -55.148)" fill="#fff" fill-rule="evenodd"/><path d="M933.984,468.79l18.251,1.059a2.71,2.71,0,0,1,2.545,2.787l-.02.8-.021,1.441a31.288,31.288,0,0,1-.351,4.81,11.857,11.857,0,0,1-2.993,6.675c-2.147,2.186-5.286,2.456-11.955,1.757-4.26-.445-7.578-3.27-8.089-7.2a55.268,55.268,0,0,1-.224-9.571A2.7,2.7,0,0,1,933.984,468.79Zm-.046.8a1.894,1.894,0,0,0-1.991,1.625l-.015.163a54.537,54.537,0,0,0,.218,9.426c.46,3.54,3.465,6.1,7.375,6.508l.873.088c5.813.557,8.612.237,10.425-1.608a11.1,11.1,0,0,0,2.772-6.239l.079-.525a33.021,33.021,0,0,0,.263-4.179l.036-2.122q0-.06,0-.121a1.906,1.906,0,0,0-1.788-1.954Z" transform="translate(-249.562 -54.69)" fill="#253368"/><path d="M948.076,479.976a.805.805,0,0,0-.85.758,4.157,4.157,0,1,0,8.249.479.805.805,0,0,0-1.608-.093,2.56,2.56,0,1,1-5.034-.293A.805.805,0,0,0,948.076,479.976Z" transform="translate(-258.177 -60.644)" fill="#253368"/><path d="M891.407,466.589l-20.662-1.2c-.941,2.975-.88,14.693,2.521,17.4,4.607,2.764,14.263,2.245,15.9-.2,2.486-3.714,3.75-11,3.894-14.162A1.755,1.755,0,0,0,891.407,466.589Z" transform="translate(-217.21 -52.884)" fill="#fff" fill-rule="evenodd"/><path d="M870.239,464.531l20.662,1.2a2.157,2.157,0,0,1,2.031,2.256c-.2,4.477-1.808,11.149-3.961,14.367-1.863,2.785-11.868,3.069-16.442.325-3.081-2.449-4.065-13.544-2.7-17.867A.4.4,0,0,1,870.239,464.531Zm.275.822-.053.2c-1.064,4.361-.082,14.394,2.526,16.47,4.2,2.518,13.736,2.248,15.315-.113,2.056-3.073,3.629-9.613,3.826-13.956a1.353,1.353,0,0,0-1.274-1.416Z" transform="translate(-216.681 -52.427)" fill="#253368"/><path d="M892.962,476.777a.805.805,0,0,0-.851.757,4.157,4.157,0,1,0,8.249.48.805.805,0,0,0-1.608-.093,2.56,2.56,0,1,1-5.034-.292A.805.805,0,0,0,892.962,476.777Z" transform="translate(-228.852 -58.942)" fill="#253368"/><path d="M930.764,468.312a1.207,1.207,0,0,0-.208,2.4l.131.011,22.657.72a1.207,1.207,0,0,0,.208-2.4l-.131-.011Z" transform="translate(-248.76 -54.439)" fill="#253368"/><path d="M869.633,463.764a1.207,1.207,0,0,0-.3,2.392l.131.017,22.151,1.6a1.207,1.207,0,0,0,.3-2.392l-.131-.016Z" transform="translate(-216.207 -52.017)" fill="#253368"/><path d="M994.734,472.889c2.377-2.364,6.017-2.963,8.53-.14,4.047,4.547-.084,21.105-11.24,21.6C987.8,493.685,991.016,476.577,994.734,472.889Z" transform="translate(-280.954 -55.797)" fill="#ffc999" fill-rule="evenodd"/><path d="M899.534,751.674s10-50.08,14.435-68.58,11.15-62.8,3.5-66.113-25.946-10.36-25.946-10.36-18.156,2.332-34.557,5.824c-12.982,2.765-9.3-9.424-25.036-6.824-6.665,1.1-27.585,4.4-38.029,10.1-4.188,2.285-3.512,16.158-4.107,29.644-1.9,43.044,8.6,108.994,8.6,108.994s-6.228,6.4,1.322,14.7c3.741,3.886,19.94,2.57,40.676,2.62,23.6.058,51.37,3.022,56.522-1.467C906.6,761.778,899.534,751.674,899.534,751.674Z" transform="translate(-174.295 -127.304)" fill="#fff" fill-rule="evenodd"/><path d="M881.431,592.213l15.824,15.192L878.266,620.7l-8.228-20.257Z" transform="translate(-217.111 -120.365)" fill="#fff" fill-rule="evenodd"/><path d="M862.546,1364.252l-33.264-314.883-1.326-.655L793.04,1364.978s-26.034,6.036-39.791-2.223c-.536-61.32,13.9-260.516,20.013-351.483.983-14.646,5.485-34.551,6.384-40.085,41.8-7.063,98.422,3.123,98.422,3.123l2.447,7.343a17.348,17.348,0,0,1,.856,4.418l26.245,375.076S881.89,1370.457,862.546,1364.252Z" transform="translate(-154.961 -320.684)" fill="#2f4858" fill-rule="evenodd"/><path d="M866.4,1113.591a.6.6,0,0,0-.623,1.029l.093.056,25.191,12.311a.6.6,0,0,0,.623-1.029l-.094-.056Z" transform="translate(-214.711 -397.75)" fill="#fff"/><path d="M907.861,953.492s-53.224-7.866-97.467-.117c-.365,3.922-.744,8.751-.744,8.751s37.857,2.607,99.066,4.116C908.549,955.6,907.861,953.492,907.861,953.492Z" transform="translate(-184.98 -310.717)" fill="#2f4858" fill-rule="evenodd"/><path d="M891.233,979.609a449.479,449.479,0,0,0-57.873-1.256c-7.81.39-15.179,1.048-22.033,2a.6.6,0,1,0,.166,1.2c6.817-.945,14.151-1.6,21.928-1.988a448.259,448.259,0,0,1,57.714,1.254l3.07.259c3.005.262,5.816.534,8.4.807l2.9.317,2.064.243.449.056a.6.6,0,0,0,.154-1.2l-1.193-.146q-1.249-.148-2.845-.324l-2.269-.241C898.631,980.252,895.072,979.921,891.233,979.609Z" transform="translate(-185.595 -325.591)" fill="#fff"/><path d="M891.689,951.2a449.654,449.654,0,0,0-57.873-1.256c-7.81.39-15.179,1.048-22.033,2a.6.6,0,0,0,.166,1.2c6.817-.944,14.151-1.6,21.928-1.988a448.414,448.414,0,0,1,57.714,1.254l2.061.172c3.048.26,5.9.531,8.539.8l3.285.354,2.995.353a.6.6,0,0,0,.154-1.2l-1.193-.146c-.693-.082-1.469-.172-2.326-.266l-2.793-.3C899.087,951.846,895.528,951.514,891.689,951.2Z" transform="translate(-185.838 -310.476)" fill="#fff"/><path d="M904.545,954.9a.6.6,0,0,0-.619.589l-.066,3.15c-.026,1.352-.051,2.842-.076,4.455-.2,13.364-.212,27.547.088,40.835l.074,3.023c.327,12.264.919,22.553,1.822,30.265a.6.6,0,0,0,1.2-.14l-.143-1.263c-.888-8.165-1.455-19.021-1.746-31.912-.276-12.25-.287-25.263-.13-37.694l.053-3.778.131-6.909A.6.6,0,0,0,904.545,954.9Z" transform="translate(-234.99 -313.344)" fill="#fff"/><path d="M883.456,961.176a2.182,2.182,0,1,0,2.159-2.686A2.478,2.478,0,0,0,883.456,961.176Z" transform="translate(-224.251 -315.255)" fill="#fff" fill-rule="evenodd"/><path d="M928.024,603.314l14.648,19.273,21.885-25.717-8.015-10.019Z" transform="translate(-247.965 -117.511)" fill="#fff" fill-rule="evenodd"/><path d="M912.633,624.206a.805.805,0,0,0-1.034.478l-.152.45-.15.481q-.079.261-.167.565l-.09.314c-.367,1.3-.769,2.9-1.2,4.827l-.237,1.081c-1.437,6.68-2.871,15.513-4.215,26.776l-.358,3.073c-1.443,12.734-2.682,27.692-3.661,45.053l-.081,1.452a524.795,524.795,0,0,0,.149,66.132.805.805,0,1,0,1.606-.12l-.125-1.739a526.954,526.954,0,0,1-.094-62.846l.072-1.338c.989-17.95,2.254-33.356,3.734-46.411l.242-2.1c1.371-11.679,2.839-20.777,4.305-27.6l.233-1.066c.384-1.723.746-3.18,1.078-4.388l.1-.355c.118-.419.226-.78.321-1.085l.164-.5c.015-.045.028-.08.036-.1A.8.8,0,0,0,912.633,624.206Z" transform="translate(-233.232 -137.361)" fill="#253368"/><path d="M787.819,683.995a.882.882,0,0,0-1.266.119,1.388,1.388,0,0,0-.267.592,7.46,7.46,0,0,0-.15,1.169l-.016.263c-.059,1.065-.069,2.612-.029,4.594l.022.946c.132,5.025.539,12.224,1.193,20.87l.245,3.152c1.634,20.6,4.362,46.166,8.025,73.946l.392,2.94-.15.384-.13.349c-.267.731-.534,1.54-.783,2.405a28.1,28.1,0,0,0-1.117,6.149c-.181,3.28.477,5.95,2.222,7.751a.805.805,0,1,0,1.157-1.12c-1.376-1.421-1.93-3.668-1.771-6.542a26.535,26.535,0,0,1,1.057-5.792c.19-.662.392-1.289.6-1.871l.274-.754c.093-.247.166-.429.212-.538a.806.806,0,0,0,.056-.42l-.624-4.72c-3.624-27.668-6.311-53.072-7.9-73.452l-.215-2.817c-.576-7.7-.948-14.2-1.1-18.968l-.05-1.867c-.038-1.833-.033-3.284.014-4.306l.011-.228c.018-.329.042-.6.068-.811l.029-.194.012-.008.083-.086A.805.805,0,0,0,787.819,683.995Z" transform="translate(-172.431 -169.087)" fill="#253368"/><path d="M846.278,676.3l1.106.095q.537.048,1.038.1l1.633.174.5.06a.844.844,0,0,1,.734.891l-1.949,30.037a.845.845,0,0,1-.43.681l-16.271,9.1a.844.844,0,0,1-.887-.039l-12.568-8.581a.842.842,0,0,1-.368-.694l.011-5.467.019-3.486c.04-6.04.114-12.762.231-20.049a.844.844,0,0,1,.492-.753c3.174-1.454,7.758-2.219,13.407-2.434A112.869,112.869,0,0,1,846.278,676.3Zm-13.84,1.346a37.044,37.044,0,0,0-11.493,1.969l-.19.078-.106,7.4c-.048,3.848-.084,7.5-.109,10.946l-.034,6.514,0,3.12,11.769,8.035,15.415-8.624,1.868-28.781-.348-.037c-.913-.1-1.943-.2-3.067-.289a111.348,111.348,0,0,0-13.1-.359Z" transform="translate(-189.856 -164.88)" fill="#253368"/><path d="M925.589,649.943a2.3,2.3,0,1,0,2.31-2.683A2.524,2.524,0,0,0,925.589,649.943Z" transform="translate(-246.668 -149.655)" fill="#fff" fill-rule="evenodd"/><path d="M917.861,708.908a2.3,2.3,0,1,0,2.31-2.683A2.526,2.526,0,0,0,917.861,708.908Z" transform="translate(-242.557 -181.029)" fill="#fff" fill-rule="evenodd"/><path d="M912.961,772.762a2.3,2.3,0,1,0,2.31-2.683A2.524,2.524,0,0,0,912.961,772.762Z" transform="translate(-239.949 -215.004)" fill="#fff" fill-rule="evenodd"/><path d="M911.026,832.789a2.3,2.3,0,1,0,2.31-2.683A2.525,2.525,0,0,0,911.026,832.789Z" transform="translate(-238.92 -246.944)" fill="#fff" fill-rule="evenodd"/><path d="M910.721,912.215a2.3,2.3,0,1,0,2.31-2.683A2.524,2.524,0,0,0,910.721,912.215Z" transform="translate(-238.758 -289.206)" fill="#fff" fill-rule="evenodd"/><path d="M963.681,608.414a.808.808,0,0,0-1.053.008l-.084.085-20.537,24.218-14.663-17.056a.805.805,0,0,0-1.039-.157l-.1.071a.805.805,0,0,0-.157,1.039l.071.1L941.4,634.49a.806.806,0,0,0,1.14.082l.085-.087,21.145-24.938A.8.8,0,0,0,963.681,608.414Z" transform="translate(-246.85 -128.883)" fill="#253368"/><path d="M873.8,610.322a.805.805,0,0,0-1.56.382l.026.106,6.4,20.1a.8.8,0,0,0,1.167.454l.091-.061,18.129-13.968a.805.805,0,0,0-.883-1.341l-.1.065-17.218,13.267Z" transform="translate(-218.276 -129.701)" fill="#253368"/><path d="M875.091,979.755a.6.6,0,0,0-.686.508l-.156,1.152-.037.295c-.144,1.156-.288,2.465-.422,3.9a123.2,123.2,0,0,0-.386,19.631c1.017,14.749,5.308,24.1,14.016,25.291a.6.6,0,0,0,.163-1.2c-7.925-1.081-11.993-9.948-12.974-24.172a122.136,122.136,0,0,1,.383-19.439l.117-1.187c.079-.771.16-1.5.241-2.176l.133-1.064.117-.854A.6.6,0,0,0,875.091,979.755Z" transform="translate(-218.779 -326.567)" fill="#fff"/><path d="M1004.634,479.651a.6.6,0,0,0-.786-.333l-.215.094c-.122.059-.276.137-.454.234a8.7,8.7,0,0,0-1.422.974,5.261,5.261,0,0,0-1.993,5.454,2.435,2.435,0,0,0,1.3,1.714l.309.174c.618.336.767.5.828,1.026a2.357,2.357,0,0,1-1.226,2.327,4.85,4.85,0,0,1-.922.467l-.285.1c-.047.015-.089.026-.117.033a.6.6,0,0,0,.285,1.173,5.733,5.733,0,0,0,1.7-.762,3.532,3.532,0,0,0,1.759-3.468,2.162,2.162,0,0,0-1.268-1.854l-.3-.166c-.566-.312-.772-.524-.889-1.036a4.092,4.092,0,0,1,1.6-4.258,7.5,7.5,0,0,1,1.231-.84,5.776,5.776,0,0,1,.533-.266A.608.608,0,0,0,1004.634,479.651Z" transform="translate(-285.829 -60.271)" fill="#dd936f"/><path d="M507.47,522.053s-17.344-51.7-36.98-64.248c-5.846.216-.364,7.916,3.7,14.218a37.977,37.977,0,0,1,3.453,7.292s-8.018-.838-6.48,5.967c-6.424-.31-4.1,6.879-4.1,6.879s-4.938.01-3.35,6.689c1.091,4.592,7.277,10.011,8.7,14.841,5.468,18.629,14.45,19.659,18.057,20.23C499.6,535.366,505.2,531.89,507.47,522.053Z" transform="translate(-0.747 -48.848)" fill="#ffc999" fill-rule="evenodd"/><path d="M516.556,519.679l-7.03-15.223-.175-.659c-1.555-5.586-4.02-7.872-6.131-5.855-1.816,1.734-2.136,6.16-.51,10.184,3.237,8.008,3.564,11.714,2.4,16.085l-.384,1.4a11.818,11.818,0,0,0-.394,2.2,22.8,22.8,0,0,0,.766,8.557A11.006,11.006,0,0,0,513,544.256a.6.6,0,1,0,.318-1.165c-6.54-1.786-8.346-7.614-7.785-15.2a9.909,9.909,0,0,1,.277-1.663l.165-.636c.053-.194.119-.43.218-.781l.154-.579c1.143-4.51.743-8.486-2.521-16.562-1.459-3.611-1.176-7.521.225-8.859,1.13-1.079,2.8.476,4.156,5.357l.183.686,7.067,15.327a.6.6,0,0,0,1.133-.4Z" transform="translate(-21.1 -69.82)" fill="#dd936f"/><path d="M479.043,515.3a.6.6,0,0,0-.277.808l.229.455c.183.359.392.758.624,1.188.662,1.229,1.371,2.459,2.1,3.609a29.113,29.113,0,0,0,2.267,3.155c1.479,1.748,2.772,2.6,3.956,2.241,2.66-.815,3.477-2.773,2.811-5.318a12.384,12.384,0,0,0-1.3-3c-.325-.561-.672-1.092-1.021-1.577l-.278-.378c-.08-.105-.145-.189-.194-.248a.6.6,0,0,0-.936.762l.248.323c.054.073.114.155.179.245.327.455.653.954.957,1.479a11.2,11.2,0,0,1,1.177,2.7c.516,1.969-.02,3.253-2,3.858-.539.165-1.5-.473-2.681-1.867a27.925,27.925,0,0,1-2.169-3.022c-.713-1.123-1.408-2.328-2.057-3.533l-.324-.609-.508-.993A.6.6,0,0,0,479.043,515.3Z" transform="translate(-8.888 -79.408)" fill="#dd936f"/><path d="M471.762,531.094a.6.6,0,0,0-1.144.387l.136.378.179.464q.1.244.208.508a25.357,25.357,0,0,0,1.463,2.95c1.712,2.923,3.645,4.649,5.85,4.475,2.169-.171,3.181-1.59,3.239-3.68a9.266,9.266,0,0,0-.27-2.358,9.5,9.5,0,0,0-.277-.972.6.6,0,0,0-1.137.406l.067.2c.051.164.111.381.171.639a8.105,8.105,0,0,1,.239,2.048c-.043,1.532-.658,2.394-2.128,2.51-1.591.125-3.215-1.325-4.713-3.882a24.186,24.186,0,0,1-1.392-2.808l-.2-.484-.248-.653C471.787,531.168,471.772,531.124,471.762,531.094Z" transform="translate(-4.569 -87.626)" fill="#dd936f"/><path d="M462.879,542.131a.6.6,0,0,0-.443.73l.092.345.17.572q.048.152.1.312a20.432,20.432,0,0,0,1.086,2.685c1.574,3.179,3.617,4.835,6.154,3.862a3.058,3.058,0,0,0,2.23-3.57,6.713,6.713,0,0,0-1-2.391,11.175,11.175,0,0,0-.7-.984l-.223-.272c-.041-.048-.076-.088-.1-.118a.6.6,0,0,0-.892.813l.137.16c.04.048.086.1.136.168a9.966,9.966,0,0,1,.622.876,5.594,5.594,0,0,1,.828,1.952c.176,1.033-.221,1.76-1.472,2.24-1.757.674-3.31-.583-4.64-3.271a19.34,19.34,0,0,1-1.021-2.526q-.1-.3-.179-.573l-.157-.567a.6.6,0,0,0-.622-.459Z" transform="translate(-0.223 -93.708)" fill="#dd936f"/><path d="M667.171,730.316a.8.8,0,0,0-.271,1.106l.911,1.477.859,1.367c.7,1.108,1.465,2.3,2.287,3.559,3.129,4.8,6.433,9.6,9.767,14.078,2.415,3.246,4.758,6.205,7,8.812,4.27,4.969,8.05,8.527,11.244,10.4a.8.8,0,0,0,.725.045l.113-.059,26.351-16.7a.805.805,0,0,0-.757-1.417l-.105.057-25.928,16.428-.216-.136a50.791,50.791,0,0,1-9.778-9.178l-.429-.5c-2.214-2.576-4.534-5.506-6.928-8.724-3.312-4.452-6.6-9.224-9.711-14l-.8-1.23c-.649-1.005-1.257-1.96-1.819-2.854l-.84-1.345-.571-.929A.805.805,0,0,0,667.171,730.316Z" transform="translate(-108.962 -193.785)" fill="#253368"/><path d="M642.436,736.224a.6.6,0,0,0-1.11.461l.042.1,14.159,26.946a.6.6,0,0,0,1.11-.461l-.042-.1Z" transform="translate(-95.402 -196.819)" fill="#dd936f"/><path d="M1056.66,768.246a21.58,21.58,0,0,0,12.058-27.083l-34.415-97.8a26.544,26.544,0,1,0-49.123,19.974l43.6,94.066A21.579,21.579,0,0,0,1056.66,768.246Z" transform="translate(-277.063 -138.14)" fill="#ffc999" fill-rule="evenodd"/><path d="M1047.985,701.635l-21.562-62.053c-6.186-13.486-28.917-18.836-42.295-12.413a26.529,26.529,0,0,0-12.218,35.822l30.429,60.566S1036.493,715.6,1047.985,701.635Z" transform="translate(-269.811 -137.524)" fill="#fff" fill-rule="evenodd"/><path d="M1003.612,737.99a.805.805,0,0,0-1.521.518l.037.113,18.993,44.625a.806.806,0,0,0,.987.452l1.675-.555,1.549-.528c1.259-.433,2.611-.909,4.038-1.426,5.442-1.97,10.888-4.119,15.97-6.377l1.469-.66c7.725-3.513,13.78-6.947,17.6-10.212a23.163,23.163,0,0,0,1.7-1.6.805.805,0,0,0-1.165-1.111,20.751,20.751,0,0,1-1.586,1.49c-3.912,3.343-10.383,6.941-18.674,10.624-5.049,2.241-10.458,4.376-15.867,6.335l-1.394.5q-1.713.609-3.238,1.129l-1.876.632Z" transform="translate(-287.361 -197.669)" fill="#253368"/><path d="M857.39,871.892a12.479,12.479,0,0,0,12.15,11.248L980.5,885.535a21.561,21.561,0,1,0-2.578-42.9L868.047,858.31A12.479,12.479,0,0,0,857.39,871.892Z" transform="translate(-210.349 -253.493)" fill="#ffc999" fill-rule="evenodd"/><path d="M764.511,876.13l-24.4-76.316a3.068,3.068,0,0,0-2.885-2.136l-68.412-.926a3.071,3.071,0,0,0-2.945,4.067l25.467,74.289a3.071,3.071,0,0,0,2.771,2.072l67.341,2.954A3.072,3.072,0,0,0,764.511,876.13Z" transform="translate(-108.388 -229.197)" fill="#2f4858" fill-rule="evenodd"/><path d="M756.7,875.127l-23.972-74.987a3.722,3.722,0,0,0-3.494-2.587l-69.257-.938a2.149,2.149,0,0,0-2.06,2.845l25.821,75.318a3.4,3.4,0,0,0,3.067,2.295l66.188,2.9A3.72,3.72,0,0,0,756.7,875.127Z" transform="translate(-104.182 -229.124)" fill="#039" fill-rule="evenodd"/><path d="M797.391,813.407c-.774.861-.5,2.374.622,3.381s2.652,1.121,3.428.261.5-2.376-.622-3.381S798.165,812.545,797.391,813.407Z" transform="translate(-178.223 -237.751)" fill="#adc6ff" fill-rule="evenodd"/><path d="M799.6,815.648a1.462,1.462,0,1,0,1.779.135A1.283,1.283,0,0,0,799.6,815.648Z" transform="translate(-179.508 -239.092)" fill="#e4ebf7" fill-rule="evenodd"/><path d="M788.344,881.542c-3.931-.381-6-2.025-5.625-5.3-4.728-1.487-4.2-5.491-4.2-5.491s-9.1-.14-10.631-4.028a2.427,2.427,0,0,1,2.179-3.236,69.069,69.069,0,0,0,33.4-11.653s-7.665-11.255-6.854-16.45a1.793,1.793,0,0,1,3.187-.793c8.038,10.608,24.156,18.925,24.156,18.925s19.348,18.128-1.639,26.348c0,0-16,6.375-27.139,5.568C789.9,885.051,788.344,881.542,788.344,881.542Z" transform="translate(-162.674 -248.959)" fill="#ffc999" fill-rule="evenodd"/><path d="M802.55,904.927a.6.6,0,0,0-.822-.232,21.891,21.891,0,0,1-4.847,1.919,38.811,38.811,0,0,1-6.841,1.19l-.713.058c-.918.068-1.705.1-2.319.107h-.453a.6.6,0,0,0-.114,1.2l.1.009h.249c.816,0,1.972-.048,3.359-.172a40.032,40.032,0,0,0,7.056-1.229,23.11,23.11,0,0,0,5.115-2.029A.6.6,0,0,0,802.55,904.927Z" transform="translate(-172.366 -286.591)" fill="#dd936f"/><path d="M810.782,917.7a.6.6,0,0,0-.806-.281q-.27.131-.544.254a27.544,27.544,0,0,1-7.3,2.082,24.51,24.51,0,0,1-3.546.295.6.6,0,0,0-.123,1.2l.1.009h.217l.446-.01a30.369,30.369,0,0,0,10.7-2.474c.192-.087.384-.176.573-.268A.6.6,0,0,0,810.782,917.7Z" transform="translate(-178.763 -293.368)" fill="#dd936f"/><path d="M820.918,932a.6.6,0,0,0-.806-.281,16.771,16.771,0,0,1-4.22.838c-1.054.122-2.186.223-3.317.305l-1.506.1a.6.6,0,1,0,.061,1.206l1.237-.077.3-.021c1.147-.083,2.3-.186,3.368-.309l.753-.092a14.446,14.446,0,0,0,3.855-.859A.6.6,0,0,0,820.918,932Z" transform="translate(-185.43 -300.981)" fill="#dd936f"/><path d="M992.458,841.6,885.323,856.234a.6.6,0,0,0,.065,1.2l.1-.005,107.135-14.636a.6.6,0,0,0-.066-1.2Z" transform="translate(-224.966 -253.056)" fill="#dd936f"/></g></svg>