<svg xmlns="http://www.w3.org/2000/svg" width="300" height="219.448" viewBox="0 0 300 219.448"><g transform="translate(-65 -155)"><path d="M272.959,157.464c32.113-7.188,61.863,1.341,77.854,25.7s11.807,63.016,8.344,80.079S346.905,295.935,336,309.5a172.061,172.061,0,0,1-78.23,54.895c-30.6,10.41-63.826,12.544-95.716,7.278-17.889-2.954-73.848-17.427-85.927-61.1s-19.724-81,6.434-96.165,44.277-3.758,57.227,1.85C200.286,242.459,240.847,164.653,272.959,157.464Z" fill="#ebf2ff" fill-rule="evenodd"/><path d="M326.546,216.477c5.151-.4,10.7-.14,14.9,2.872s6.1,9.626,2.658,13.475c3.9-1.524,8.477,1.06,10.43,4.761s1.85,8.135,1.262,12.278a60.033,60.033,0,0,1-12,28.3l-.877,2.586c7.524,1.94,36.906,13.351,28.968,41.481s-42.61,38.837-46.159,42.2c-6.185,5.868-15.627,6.269-24.149,6a331.028,331.028,0,0,1-62.294-7.941c-1.739-.392-3.941-.631-4.943.842-7.254,10.666-22.424,11.62-35.29,10.691a313.511,313.511,0,0,1-49.087-7.488c-9.149-2.149-18.865-5.142-24.565-12.615-6.645-8.712-5.877-20.79-4.8-31.693q-6.551,3.642-21.731,3.945-8.937-1.823-11.15-6.479c-6.745-14.2-9.058-32.49-.659-46.482a13.049,13.049,0,0,1,3.816-4.407,12.825,12.825,0,0,1,5.936-1.69,39.717,39.717,0,0,1,23.594,5.367q-.095-34.367-.189-68.735a7.033,7.033,0,0,1,.714-3.814c1.012-1.606,3.085-2.1,4.95-2.451a426.593,426.593,0,0,1,51.36-6.394c5.63-.356,13.334,1.211,13.359,6.851q.147,32.4.295,64.8c.023,5.141.354,4.711,2.762,3.222-1.514.157-1.176-2.411-.029-3.412,4.284-3.735,10.527-3.872,16.209-3.814l38.133.39c12.316.126,27.085,1.688,32.661,12.67a6.264,6.264,0,0,1,6.064-6.314c3.563.033,6.544-3.058,7.584-6.467s.581-7.071.113-10.6a18.637,18.637,0,0,1,16.718-31.643C316.17,217.809,321.394,216.875,326.546,216.477ZM179.054,322.436c-.169,4.548-.348,9.157-1.686,13.506Zm-5.266-55.814c1.183.346,2.647,1.4,2.026,2.46,5.139.514,3.6.276,3.836-5.781.235-6.145.254-12.94-3.769-17.591-3.56-4.116-9.366-5.4-14.788-5.866a75.894,75.894,0,0,0-18.989.77c-3.056.513-6.367,1.4-8.14,3.939a11.874,11.874,0,0,0-1.65,4.889,87.752,87.752,0,0,0-1.065,20.394A61.159,61.159,0,0,1,173.788,266.621Zm114.348,45.151a2.128,2.128,0,0,1,1.263-.467l5.432-.747c-4.156-1.877-6.674-6.335-7.427-10.833s-.017-9.095.725-13.594c-2.658,2.958-2.466,7.421-2.118,11.383C286.773,306.186,287.814,312.1,288.136,311.772Zm-34.187,42.709c.356-1.158,1.568-1.78,2.456-2.605,1.6-1.485,2.191-3.73,2.712-5.848,1.8-7.319,3.613-14.728,3.591-22.266a14.118,14.118,0,0,1,.443-4.745,4.008,4.008,0,0,1,3.45-2.877c1.684-.008,2.086-2.344,1.936-4.021q-.779-8.674-1.558-17.348a25.613,25.613,0,0,0-.9-5.479c-2.073-6.536-10.058-10.487-16.511-8.17-.79.284-1,1.282-1.091,2.116l-2.98,27.75c-.176,1.644,1.946,2.692,3.548,2.285s2.825-1.659,4.21-2.56,3.338-1.421,4.609-.366c1.438,1.193,3.566-.132,4.814-1.521s2.875-3.065,4.651-2.485l-6.25,5.978c-.691.661-1.3,1.981-.427,2.371a14.646,14.646,0,0,0,6.207-4.268c.763-.024.8,1.174.373,1.807-1.6,2.387-5.379,2.918-6.351,5.625a15.049,15.049,0,0,1-15.975,9.475c-1.36-.213-2.038,1.576-2.2,2.943q-.979,8.176-1.958,16.353a7.066,7.066,0,0,0,.226,3.733c.861,1.923,3.165,2.651,5.208,3.168a59.9,59.9,0,0,0,8.191,1.67C255.541,355.322,255.536,354.9,253.949,354.482Zm-107.572-9.994a56.264,56.264,0,0,0,11.988,2.16,9.09,9.09,0,0,0,5.082-.434c1.812-.918,2.777-2.907,3.556-4.783a96.589,96.589,0,0,0,7.292-33.007c.066-1.608-1.993-2.318-3.6-2.426-12.82-.86-25.08,4.775-36.69,10.278a2.1,2.1,0,0,0-1.606,2.466c.208,6.252.47,12.728,3.266,18.324a10.786,10.786,0,0,0,3.076,3.968,14.223,14.223,0,0,0,2.7,1.445C143.067,343.2,144.693,343.924,146.377,344.488Zm82.931-23.139a255.743,255.743,0,0,0,3.606-27.795,32.981,32.981,0,0,0-.279-9.553,12.156,12.156,0,0,0-5.071-7.841,15.709,15.709,0,0,0-5.576-1.848,55.539,55.539,0,0,0-10.736-.854c-3.173.056-6.5.443-9.092,2.276a4.871,4.871,0,0,0-1.947,2.4,2.535,2.535,0,0,0,.82,2.82c2.2,1.487,3.091,4.269,3.5,6.889s.511,5.363,1.7,7.731a14.848,14.848,0,0,0,2.424,3.293,40.753,40.753,0,0,0,18.7,11.53c1.253.358,2.848,1.132,2.584,2.408C233.887,315.3,229.242,321.7,229.308,321.35Zm-10.868,27.1a10.475,10.475,0,0,0,3.3-3.812,53.9,53.9,0,0,0,7.043-20.292,55.943,55.943,0,0,1-36.309-13.782,15.249,15.249,0,0,0-.229,4.2,143.056,143.056,0,0,1-1.553,26.258,5.844,5.844,0,0,0,2.62,5.36,14.559,14.559,0,0,0,5.848,2.143,62.618,62.618,0,0,0,14.083,1.089A10.624,10.624,0,0,0,218.44,348.454ZM301.9,272.759c-.771-1.858-1.35-3.953-2.949-5.173s-4.611-.623-4.705,1.386c1.583-.292,2.793,1.663,2.523,3.249s-1.423,2.849-2.34,4.172a35.214,35.214,0,0,0-5.275,21.493c.322,3.1,1.171,6.282,3.266,8.587s5.687,3.458,8.447,2.015c2.372-1.239,3.555-3.972,4.1-6.591s.641-5.363,1.668-7.833c1.9-4.558,6.57-7.311,11.193-9.04A20.6,20.6,0,0,1,301.9,272.759Zm-19.221,4.93a18.674,18.674,0,0,0,1.275,3.469,19.3,19.3,0,0,1,1.541-4.526,17.713,17.713,0,0,0-2.13-.115.933.933,0,0,0-.5.1C282.54,276.826,282.586,277.313,282.684,277.689ZM198.9,276.46c-.437.352-.694,1.11-.232,1.43l2.122-2.125a1,1,0,0,0-.588-.35C199.924,275.9,199.34,276.107,198.9,276.46Z" transform="translate(-8.368 -18.105)" fill="#fff" fill-rule="evenodd"/><path d="M560.737,346.974A2.737,2.737,0,1,0,558,344.237,2.737,2.737,0,0,0,560.737,346.974Z" transform="translate(-247.676 -93.695)" fill="#0559ff"/><path d="M530.493,343.986A1.493,1.493,0,1,0,529,342.493,1.493,1.493,0,0,0,530.493,343.986Z" transform="translate(-233.107 -93.444)" fill="#0559ff"/><path d="M215.679,243.874l13.435.085a1.017,1.017,0,0,1,.6.131c.345.254.208.848-.148,1.087a2.075,2.075,0,0,1-1.245.214,68.5,68.5,0,0,0-11.8.611,3.464,3.464,0,0,1-1.776-.056,1.154,1.154,0,0,1-.725-1.434C214.291,243.946,215.052,243.87,215.679,243.874Zm-14.976-.44a.742.742,0,0,1-.168,1.049,2.147,2.147,0,0,1-1.136.337l-11.911,1.206a3.443,3.443,0,0,1-1.4-.051,1.046,1.046,0,0,1,0-2.06,3.638,3.638,0,0,1,1.448-.074,49.682,49.682,0,0,0,12.2-.548A1.1,1.1,0,0,1,200.7,243.434Zm-.556-7.621a.67.67,0,0,1-.107.991,1.934,1.934,0,0,1-1.083.308l-12.751,1.006a3.388,3.388,0,0,1-1.422-.09,1.158,1.158,0,0,1-.82-1.061,1.172,1.172,0,0,1,.945-.974,3.792,3.792,0,0,1,1.445.042c4.328.639,8.728.056,13.085-.34A.97.97,0,0,1,200.146,235.813Zm17.808-2.526a37.341,37.341,0,0,0,8.029.154c1.062-.095,2.346-.139,2.949.74a4.526,4.526,0,0,1-2.619.72l-9.14.576c-.7.044-1.562-.009-1.848-.643a1.208,1.208,0,0,1,.776-1.485A3.739,3.739,0,0,1,217.954,233.287ZM194.97,230.03c0,.46-.574.658-1.029.726l-6.7.981a3.576,3.576,0,0,1-1.439.014,1.22,1.22,0,0,1-.946-.977,1.273,1.273,0,0,1,1.076-1.214,5.138,5.138,0,0,1,1.762.082c2.022.26,4.063-.184,6.1-.254C194.3,229.37,194.966,229.531,194.97,230.03Zm32.308-1.6a1.347,1.347,0,0,1,1.188.869,6.242,6.242,0,0,1-3.285.925l-5.9.523-2.079.184a3.419,3.419,0,0,1-1.51-.093,1.167,1.167,0,0,1-.811-1.155c.111-.794,1.153-1,1.955-.983,2.973.064,5.983.513,8.9-.086A4.987,4.987,0,0,1,227.277,228.427Zm2.612-7.508c-14.574,1.965-29.515.948-43.889,4.057-.852.184-2.042.194-2.263-.65.02-.994,1.306-1.353,2.3-1.424l41.946-2.992C228.8,219.851,229.953,220.1,229.889,220.919Z" transform="translate(-59.652 -32.606)" fill="#e7eaee" fill-rule="evenodd"/><path d="M126.615,357.485c.152,1.763-2.278,2.361-4.048,2.368a77.005,77.005,0,0,0-26.983,5.01,5.806,5.806,0,0,0-3.355,2.377c-.845,1.655.077,3.773,1.573,4.877a11.839,11.839,0,0,0,5.24,1.738,795.168,795.168,0,0,0,144.382,10.155l.776-.017c5.571-.129,11.257-.428,16.36-2.634l-12.675-8.884c7.314-1.46,14.86-.42,22.282.313a265.827,265.827,0,0,0,51.13.1c-1.2,1.911-3.827,2.177-6.081,2.225a562.883,562.883,0,0,1-64.069-2.274l8.333,5.484c1.007.662,2.12,1.5,2.179,2.707.087,1.809-2.135,2.711-3.922,3.007a120.955,120.955,0,0,1-17.968,1.224A819.435,819.435,0,0,1,99.512,375.238a15.491,15.491,0,0,1-6.491-2.059c-1.885-1.3-3.171-3.769-2.379-5.918s3.187-3.14,5.352-3.848A125.824,125.824,0,0,1,126.615,357.485Zm63.26-159.547q.147,32.4.295,64.8c.023,5.141,1.036,11.647,6.008,12.956a41.962,41.962,0,0,1,22.134-3.581c4.3.483,8.775,1.784,11.689,4.989,4,4.4,4,11.017,3.574,16.944a257.774,257.774,0,0,1-5.124,35.739,7.031,7.031,0,0,1,5.467,2.151,8.67,8.67,0,0,1-6.865.11c1.492,8.086-5.1,16.064-12.986,18.381s-16.451.132-23.87-3.414c-.7,2.71,2.929,4.3,5.7,4.711l21.075,3.115a116.972,116.972,0,0,1-25.9-2.113c-1.569,2.221,1.983,4.464,4.668,4.9l21.362,3.457a201.441,201.441,0,0,1-24.061-1.6,26.425,26.425,0,0,0,18.825,6.688,18.275,18.275,0,0,1-11.929-.212c4.757,6.37,14.489,7.55,21.6,3.987s11.747-10.852,14.017-18.471,2.491-15.671,2.893-23.611a351.565,351.565,0,0,1,4.729-43.741c1.729-9.73,5.975-21.331,15.761-22.706q-26.152-1.205-52.338-1.3c-5.3-.019-11.891.848-13.662,5.847-1.514.157-1.176-2.411-.029-3.412,4.284-3.735,10.527-3.872,16.209-3.814l38.133.39c12.316.126,27.085,1.688,32.661,12.67a6.264,6.264,0,0,1,6.064-6.314c3.563.033,6.544-3.058,7.584-6.467s.581-7.071.113-10.6a19.176,19.176,0,0,1-3.514-22.095c1.057-2,2.618-6.77,11.339-9.84a22.686,22.686,0,0,1,17.241.675q16-3.094,21.99,2.2c5.99,5.29,6.1,9.626,2.658,13.475,3.9-1.524,8.477,1.06,10.43,4.761s1.85,8.135,1.262,12.278a60.033,60.033,0,0,1-12,28.3l-.877,2.586a42.319,42.319,0,0,1,30.451,33.271c-5.119-11.54-12.051-23.761-23.992-27.858-2.695,2.826-5.465,5.776-6.731,9.47s-.582,8.362,2.627,10.588l-6.046,1.4,2.013,3.57c-7.615,5.789-8.492,16.739-8.445,26.3s-.128,20.354-7.068,26.938c-6.185,5.868-15.627,6.269-24.149,6a331.023,331.023,0,0,1-62.294-7.941c-1.739-.392-3.941-.631-4.943.842-7.254,10.666-22.424,11.62-35.29,10.691a313.511,313.511,0,0,1-49.087-7.488c-9.149-2.149-18.865-5.142-24.565-12.615-6.645-8.712-5.877-20.79-4.8-31.693a34.591,34.591,0,0,1-21.731,3.945c7.815-5.109,11.6-14.883,11.675-24.218s-3.045-18.385-6.512-27.054c-7.639,4.431-11.658,13.77-11.06,22.581s5.272,16.989,11.544,23.205a28.526,28.526,0,0,1-2.167-46.736c-1.158-3.961-7.132-4.444-10.264-1.758s-4.114,7.048-4.919,11.095c-1.488,7.477-2.983,15.129-1.9,22.676s5.25,15.1,12.236,18.155c-3.264,2.353-7.613-1.034-9.781-4.425a45.121,45.121,0,0,1-.659-46.482A13.048,13.048,0,0,1,90.15,268.8a12.824,12.824,0,0,1,5.936-1.69,39.717,39.717,0,0,1,23.594,5.367q-.095-34.367-.189-68.735a7.033,7.033,0,0,1,.714-3.814c1.012-1.606,3.085-2.1,4.95-2.451a426.593,426.593,0,0,1,51.36-6.394C182.145,190.73,189.849,192.3,189.874,197.938Zm-11.506-5.471a359.2,359.2,0,0,0-54.389,6.748,4.076,4.076,0,0,0-2.125.881,4.124,4.124,0,0,0-.824,2.983q-.321,34.22.271,68.442l6.58-1.641c-.857-4.681-1.718-9.425-1.352-14.17s2.108-9.57,5.689-12.7c3.876-3.392,9.285-4.35,14.423-4.711a86.163,86.163,0,0,1,14.838.24c5.029.517,10.327,1.634,13.956,5.155,5.241,5.086,5.326,13.325,5.054,20.624q-1.08,29.061-2.161,58.122c-.169,4.548-.348,9.157-1.686,13.506s-4,8.484-8.015,10.618c-3.944,2.095-8.663,2.035-13.1,1.531A75.8,75.8,0,0,1,143,345.584a23.344,23.344,0,0,1-7.091-3.085c-7-4.95-7.822-14.829-7.992-23.4-2.687-.485-5.313,1.559-6.421,4.054s-1.06,5.328-.991,8.056c.172,6.807.437,13.953,3.912,19.809,5.361,9.035,16.622,12.372,26.9,14.529a384.1,384.1,0,0,0,55.389,7.465c-8.306-4.231-15.67-11.471-17.422-20.626a44.848,44.848,0,0,1-.577-7.565q-1.455-74.252-2.909-148.505C185.74,193.188,181.5,192.32,178.368,192.467Zm70.809,81.273a5.726,5.726,0,0,0-.49,3.555,2.559,2.559,0,0,0,2.654,2.007,14.131,14.131,0,0,1,14.025,6.409c2.347,3.84,2.673,8.539,2.937,13.032l2.406,40.927c.257,4.374.384,9.186-2.334,12.622-3.527,4.458-10.149,4.606-15.806,4.053-4.668-.457-9.579-1.233-13.2-4.21a7.49,7.49,0,0,1-1.4,4.911c-1.262,1.734.775,4.016,2.757,4.836a29.922,29.922,0,0,0,7.651,1.688q17.848,2.317,35.717,4.468c9.169,1.1,18.485,2.173,27.6.691a59.234,59.234,0,0,1-16.3-7.389,23.363,23.363,0,0,1-6.633-5.948c-2.787-4-3.374-9.09-3.838-13.946q-2.069-21.66-3.079-43.4a60.222,60.222,0,0,0-9.808-30.159c-1.052-1.6-2.34-3.255-4.2-3.7A16.656,16.656,0,0,0,249.177,273.74Zm-33.922,92.486a4.233,4.233,0,0,1,1.789.618,1.633,1.633,0,0,1,.719,1.647,1.03,1.03,0,0,1-1.486.646,5.98,5.98,0,0,0-2-.62c-.676-.191-1.384-.752-1.263-1.444C213.17,366.2,214.377,366.077,215.255,366.226Zm-26.054.26c.778.162,1.69.717,1.531,1.5-.141.687-.991.916-1.686,1.009a4.075,4.075,0,0,1-2.318-.142,1.408,1.408,0,0,1-.7-1.943,1.8,1.8,0,0,1,1.428-.563A7.2,7.2,0,0,1,189.2,366.486Zm46.581-8.659a8.153,8.153,0,0,0-1.768,2.066,33.8,33.8,0,0,1-8.837,8.683c.086.365.634.273.959.085,3.991-2.312,6.839-6.133,9.573-9.848C235.932,358.509,236.116,358,235.781,357.827Zm35.687-92.006a47.041,47.041,0,0,1,5.833,7.956,38.756,38.756,0,0,1,3.4,10.125c4.273,19.52,3.132,39.815,5.9,59.6.5,3.571,1.16,7.218,3.019,10.308,2.177,3.62,5.789,6.13,9.469,8.2a47.062,47.062,0,0,0,9.352,4.143c5.2,1.579,11.443,1.69,15.427-2,2.238-2.074,3.415-5.032,4.334-7.941a71.979,71.979,0,0,0,1.238-38.719c.079,7.592,1.065,15.167.839,22.756s-1.784,15.4-6.245,21.548a9.754,9.754,0,0,1-3.243,3.077,9.995,9.995,0,0,1-5.815.653,29.2,29.2,0,0,1-9.864-3.048,45.792,45.792,0,0,1-6.585-4.318,27.927,27.927,0,0,1-6.523-6.377,26.6,26.6,0,0,1-3.376-8.383c-5.451-21.426-1.554-44.538-8.022-65.679C279.082,272.743,276.435,267.4,271.468,265.821ZM141.419,360.08l37.753,5.827c-.319.832-1.469.862-2.353.744l-32.287-4.313-3.65-.488c-.578-.077-1.295-.286-1.368-.864C139.411,360.171,140.607,359.954,141.419,360.08ZM287.4,286.132c-2.658,2.958-2.466,7.421-2.118,11.383q1.144,13.006,2.286,26.013a2.3,2.3,0,0,0,.317,1.163,2.324,2.324,0,0,0,1.806.682l27.143,1.912c-.677,1.069-2.2,1.085-3.463.988a245.828,245.828,0,0,0-25.61-.638,36.814,36.814,0,0,0,1.9,12.938c.606,1.8,2.938,2.184,4.836,2.26l21.711.879c.333.749-.837,1.218-1.657,1.208l-22.316-.256c-1.019-.012-1.387,1.432-1,2.376,1,2.467,4.2,3,6.856,3.164l16.631,1.041c.38.024.459.621.182.881a1.493,1.493,0,0,1-1.08.259l-19.473-.413a35.949,35.949,0,0,0,19.746,11.906,9.571,9.571,0,0,0,5,.062,9.107,9.107,0,0,0,4.435-3.947c5.867-8.951,5.477-20.468,4.877-31.154l-.68-12.112a.877.877,0,0,1,1.082-.251c.137-.594-.635-.946-1.235-1.056-13.236-2.431-26.817-4.866-40.063-2.492-.423-.174-.419-.833-.1-1.158a2.128,2.128,0,0,1,1.263-.467l5.432-.747c-4.155-1.877-6.674-6.335-7.426-10.833S286.662,290.631,287.4,286.132Zm-65.052,73.629c1.179.219,2.54.58,3,1.687-1.313.895-3.036.8-4.62.676a1.859,1.859,0,0,1-1.218-.4c-.541-.552-.137-1.569.559-1.9A3.7,3.7,0,0,1,222.353,359.762Zm-89.785-8.091a185.517,185.517,0,0,0,41.781,8.01c1.1.082,2.577.606,2.366,1.688a419.228,419.228,0,0,1-44.605-7.5c-.94-.211-2.145-.88-1.795-1.776C130.622,351.3,131.76,351.417,132.568,351.671Zm49.66,6.575a5.7,5.7,0,0,1,2.008.482,1.285,1.285,0,0,1,.819.615c.272.7-.693,1.2-1.431,1.334l-1.491.27a2.09,2.09,0,0,1-1.257-.032,1.29,1.29,0,0,1-.43-1.79A2.072,2.072,0,0,1,182.228,358.247Zm63.845-1.495c6,1.141,12.14,1.205,18.245,1.266.473,0,.6.748.262,1.079a1.813,1.813,0,0,1-1.337.336c-5.7-.112-11.4-.713-17.087-.265a4.276,4.276,0,0,1-1.842-.111,1.218,1.218,0,0,1,.167-2.412A4.249,4.249,0,0,1,246.073,356.752Zm13.549-94.018a15.935,15.935,0,0,0-13.116,13.9c-.58,6.386-2.343,12.6-3.6,18.884-4.03,20.194-2.808,41.123-6.37,61.4,1.3-2.37,1.653-5.127,1.98-7.811l8.639-70.745A23.44,23.44,0,0,1,248.3,272.8C250.147,267.962,254.923,264.921,259.622,262.734Zm-30.875,91.627a2.046,2.046,0,0,1,1,.571.829.829,0,0,1,.039,1.063,1.245,1.245,0,0,1-.814.274l-2.863.253a3.825,3.825,0,0,1-1.539-.074,1.3,1.3,0,0,1-.948-1.105c-.024-.876,1.056-1.316,1.931-1.373A8.7,8.7,0,0,1,228.747,354.361Zm20.1-73.239c-.79.284-1,1.282-1.091,2.116l-2.98,27.75c-.176,1.644,1.946,2.692,3.548,2.285s2.825-1.659,4.21-2.56,3.337-1.421,4.609-.366c1.438,1.193,3.566-.132,4.814-1.521s2.875-3.065,4.651-2.485l-6.25,5.978c-.691.661-1.3,1.981-.427,2.371a14.646,14.646,0,0,0,6.207-4.268c.763-.024.8,1.174.373,1.807-1.6,2.387-5.379,2.918-6.351,5.625a15.049,15.049,0,0,1-15.975,9.475c-1.36-.213-2.038,1.576-2.2,2.943q-.979,8.176-1.958,16.353a7.066,7.066,0,0,0,.226,3.733c.861,1.923,3.165,2.651,5.208,3.168,3.837.972,7.737,1.951,11.693,1.811s8.046-1.554,10.551-4.619c-.694-.9-2.239.254-3.249-.267-.989-.51-.464-2.207.6-2.541a4.312,4.312,0,0,1,3.166.713,7.237,7.237,0,0,0,1.128-3.852c-.127-1.351-1.367-2.688-2.69-2.384-.869.2-1.224-1.307-.523-1.859a3.035,3.035,0,0,1,2.575-.167q.072-4.891.145-9.783a3.959,3.959,0,0,0-.3-1.951,1.36,1.36,0,0,0-1.664-.707c-.817.394-1.526-1-.979-1.722a3.122,3.122,0,0,1,2.486-.849,49.041,49.041,0,0,0-.559-8.662c-3.413,1.71-4.01,6.224-4.355,10.026a120.282,120.282,0,0,1-3.962,21.574,12.094,12.094,0,0,1-1.974,4.468,4.4,4.4,0,0,1-4.323,1.725c.356-1.158,1.568-1.78,2.456-2.605,1.6-1.485,2.191-3.73,2.712-5.848,1.8-7.319,3.613-14.728,3.591-22.266l0-.506a12.412,12.412,0,0,1,.446-4.239,4.008,4.008,0,0,1,3.45-2.877c1.684-.008,2.086-2.344,1.936-4.021q-.779-8.674-1.558-17.348a25.617,25.617,0,0,0-.9-5.479C263.286,282.757,255.3,278.805,248.847,281.122Zm25.409,70.529c.792.212,1.56,1.027,1.231,1.777-.314.717-1.3.756-2.08.683a1.983,1.983,0,0,1-1.085-.323,1.231,1.231,0,0,1,.041-1.776A2.017,2.017,0,0,1,274.257,351.651Zm-95.109-.8a2.786,2.786,0,0,1,1.438.644,1.07,1.07,0,0,1,.126,1.436,1.593,1.593,0,0,1-1.229.3l-1.876-.066a1.817,1.817,0,0,1-1.04-.25c-.622-.462-.349-1.545.318-1.938A3.161,3.161,0,0,1,179.147,350.85Zm-48.193-5.674a44.175,44.175,0,0,0,11.153,3q11.552,2.012,23.168,3.625a4.25,4.25,0,0,1,2.944,1.235,38.487,38.487,0,0,1-8.959-.792l-29.311-4.922c-1.025-.172-2.347-.741-2.147-1.76C128.037,344.354,129.838,344.656,130.954,345.175Zm60.8-34.608a15.248,15.248,0,0,0-.229,4.2,143.057,143.057,0,0,1-1.553,26.258,5.844,5.844,0,0,0,2.62,5.36,14.559,14.559,0,0,0,5.848,2.143,62.619,62.619,0,0,0,14.083,1.089,10.624,10.624,0,0,0,5.194-1.162,10.475,10.475,0,0,0,3.3-3.812,53.9,53.9,0,0,0,7.043-20.292A55.943,55.943,0,0,1,191.751,310.568Zm34.594,34.793,2.709.894a1.472,1.472,0,0,1,.8.477,1.013,1.013,0,0,1-.459,1.354,2.939,2.939,0,0,1-1.569.227,3.916,3.916,0,0,1-2.732-.82c-.68-.7-.447-2.207.526-2.271A1.943,1.943,0,0,1,226.345,345.36Zm47.338.131a3.008,3.008,0,0,1,1.518.538,1.036,1.036,0,0,1,.2,1.439,1.443,1.443,0,0,1-.574.309,3.666,3.666,0,0,1-2.478.2,1.453,1.453,0,0,1-.833-2.033C271.975,345.312,272.914,345.369,273.682,345.491Zm-140.4-29.215a2.1,2.1,0,0,0-1.606,2.466c.208,6.252.47,12.728,3.266,18.324a10.786,10.786,0,0,0,3.076,3.968,14.223,14.223,0,0,0,2.7,1.445c1.623.723,3.248,1.445,4.933,2.009a56.264,56.264,0,0,0,11.988,2.16,9.09,9.09,0,0,0,5.082-.434c1.812-.918,2.777-2.907,3.556-4.783a96.589,96.589,0,0,0,7.292-33.007c.066-1.608-1.993-2.318-3.6-2.426C157.152,305.138,144.891,310.773,133.281,316.276Zm42.279-8.306a2.788,2.788,0,0,0-.4,1.554,103.238,103.238,0,0,1-9.338,37.082,19.317,19.317,0,0,0,10.069-13.281,38.048,38.048,0,0,0,.539-5.9q.366-9.345.732-18.69a1.375,1.375,0,0,0-.194-.943A.948.948,0,0,0,175.56,307.97Zm2.125,31.172a10.374,10.374,0,0,1,1.9.463.969.969,0,0,1,.422,1.439,2.072,2.072,0,0,1-1.5.786,2.676,2.676,0,0,1-1.772-.267,1.382,1.382,0,0,1-.648-1.56A1.576,1.576,0,0,1,177.686,339.142Zm96.37-1.691a4.374,4.374,0,0,1,1.632.87,1.524,1.524,0,0,1,.65.749,1,1,0,0,1-.538,1.07,2.24,2.24,0,0,1-1.259.187,2.9,2.9,0,0,1-1.7-.6,1.413,1.413,0,0,1-.407-1.652A1.492,1.492,0,0,1,274.056,337.451ZM129.224,318.1a1.651,1.651,0,0,0-.095,1l.9,7.965c.491,4.322,1.134,8.98,4.155,12.109.5-.239.219-1-.1-1.455-2.447-3.531-2.918-8.022-3.315-12.3q-.349-3.761-.7-7.522A.572.572,0,0,0,129.224,318.1Zm161.091,16.314,24.9.615a30.692,30.692,0,0,1,3.8.251c-.262.908-1.456,1.078-2.4,1.069-8.323-.078-16.674-.594-24.952.272a3.407,3.407,0,0,1-2.086-.212c-.614-.359-.889-1.346-.324-1.778A1.652,1.652,0,0,1,290.315,334.411Zm-22.8-1.631a1.578,1.578,0,0,1,.518.245,1.114,1.114,0,0,1-.2,1.656,3.076,3.076,0,0,1-1.831.45,2.067,2.067,0,0,1-1.821-.584,1.431,1.431,0,0,1,.878-1.982A3.868,3.868,0,0,1,267.511,332.78Zm6.068-1.677a4.921,4.921,0,0,1,2.177.784,1.012,1.012,0,0,1-.054,1.539,2.423,2.423,0,0,1-1.691.42,3.065,3.065,0,0,1-1.715-.467,1.342,1.342,0,0,1-.516-1.58A1.725,1.725,0,0,1,273.579,331.1Zm-83.61-18.941q-.678,9.771-.608,19.575c0,.276.19.668.426.524q.749-8.232.734-16.511A8.3,8.3,0,0,0,189.969,312.162ZM181.1,328.873a3.951,3.951,0,0,1,1.921.884,1.393,1.393,0,0,1,.463.46.949.949,0,0,1-.43,1.165,2.317,2.317,0,0,1-1.325.235c-1.035-.048-2.336-.612-2.22-1.641A1.451,1.451,0,0,1,181.1,328.873Zm94.207-4.387c.693.284,1.406,1.027,1.048,1.685a1.471,1.471,0,0,1-1.341.547,9.684,9.684,0,0,1-1.758-.144c-.816-.142-.941-1.426-.307-1.959A2.334,2.334,0,0,1,275.3,324.486Zm80.763-12.746a3.093,3.093,0,0,1,.287,1.624q-.037,5.913-.073,11.826c0,.479-.067,1.058-.5,1.259a.873.873,0,0,1-1.047-.427,2.439,2.439,0,0,1-.235-1.2c-.061-3.519.331-7.122-.665-10.5-.3-1-.65-2.256.124-2.958A1.45,1.45,0,0,1,356.067,311.739Zm-101.342-.456c-2.988,1.854-6.131,3.76-9.638,4.013-.638.046-.925.808-1.051,1.436a48.115,48.115,0,0,0-.933,8.572.844.844,0,0,0,.1.509.855.855,0,0,0,.771.223,24.915,24.915,0,0,0,8.05-1.453,10.407,10.407,0,0,0,5.889-5.417,6.661,6.661,0,0,0-1.577-7.514A1.466,1.466,0,0,0,254.725,311.283Zm-22.875,11.1,2.88.756a1.359,1.359,0,0,1,.929.548.923.923,0,0,1-.4,1.126,2.694,2.694,0,0,1-1.255.323,5.39,5.39,0,0,1-2.063-.083,1.834,1.834,0,0,1-1.348-1.427C230.519,322.934,231.18,322.2,231.85,322.378ZM98.681,269.849a15.925,15.925,0,0,1,7.975,8.1,42.384,42.384,0,0,1,3.107,11.167c1.1,6.32,1.979,12.772,1.176,19.137s-3.464,12.713-8.4,16.815c3.593.192,7.884.05,9.834-2.974a3.627,3.627,0,0,1,4.259-1.358c-.942-.815-.231-2.332.469-3.363a33.581,33.581,0,0,0,5.535-14.136c1.362-9.8-2.064-19.741-7.147-28.234A13.588,13.588,0,0,0,98.681,269.849Zm85.19,50.787c.741.292.569,1.517-.124,1.911a3.172,3.172,0,0,1-2.329.02,1.861,1.861,0,0,1-.987-.479c-.571-.653.084-1.757.93-1.952A4.375,4.375,0,0,1,183.871,320.637Zm26.655-47.178c-3.173.056-6.5.443-9.092,2.276a4.871,4.871,0,0,0-1.947,2.4,2.535,2.535,0,0,0,.82,2.82c2.2,1.487,3.091,4.269,3.5,6.889s.511,5.363,1.7,7.731a14.848,14.848,0,0,0,2.424,3.293,40.753,40.753,0,0,0,18.7,11.53c1.253.358,2.848,1.132,2.584,2.408a42.074,42.074,0,0,1-25.6-16.943,28.846,28.846,0,0,1-10.126,14.1,54.2,54.2,0,0,0,33.177,12.782,1.468,1.468,0,0,0,1.918-1.4,255.746,255.746,0,0,0,3.606-27.795,32.98,32.98,0,0,0-.279-9.553,12.156,12.156,0,0,0-5.071-7.841,15.709,15.709,0,0,0-5.576-1.848A55.539,55.539,0,0,0,210.526,273.459Zm63.032,44.723c.832,0,1.881.244,2.027,1.062s-.784,1.424-1.607,1.529a2.326,2.326,0,0,1-1.732-.37,1.27,1.27,0,0,1-.368-1.615A1.921,1.921,0,0,1,273.558,318.182Zm61.458-16.387a171.8,171.8,0,0,0-3.306,18.014.944.944,0,0,0,.157.858,85.817,85.817,0,0,0,6.53-9.317c.194-.32.385-.739.167-1.044l-1.479-2.068c-.366-.512-.743-1.185-.421-1.726a1.665,1.665,0,0,1,1.356-.579l4.181-.385a1.76,1.76,0,0,0-.356-.7c-1.119-1.558-2.34-3.2-4.133-3.879C336.719,300.595,335.282,300.765,335.016,301.794Zm-193.638-61.18c-3.056.513-6.367,1.4-8.14,3.939a11.873,11.873,0,0,0-1.65,4.889,87.753,87.753,0,0,0-1.065,20.394,61.159,61.159,0,0,1,42.54-3.214c1.183.346,2.647,1.4,2.026,2.46a55.3,55.3,0,0,0-32.909-1.63c-3.493.912-6.887,2.165-10.359,3.15a69.816,69.816,0,0,1-15.85,2.572,44.455,44.455,0,0,1,3.106,46.653c4.926-.932,9.554-3,14.1-5.124,6.781-3.169,13.533-6.511,20.737-8.545s14.992-2.7,22.137-.469c.836.261,1.3-.945,1.33-1.821l1.548-40.566c.235-6.145.254-12.94-3.769-17.591-3.56-4.116-9.366-5.4-14.788-5.866A75.894,75.894,0,0,0,141.378,240.614Zm94.4,75.293a.914.914,0,0,1,.453.529c.1.475-.484.778-.95.911a5.565,5.565,0,0,1-2.076.311,1.91,1.91,0,0,1-1.643-1.141,1.176,1.176,0,0,1,.937-1.552A5.843,5.843,0,0,1,235.776,315.908Zm99.383-25.527a12.961,12.961,0,0,1-8.473,1.453c.368,1.027,1.983,1.385,1.991,2.476,0,.664-.621,1.132-.977,1.693a4.391,4.391,0,0,0-.5,1.441,77.82,77.82,0,0,0-1.757,14.3c-.024.829.182,1.922,1.005,2.012a6.1,6.1,0,0,1,4.289,2.554q1.2-7.558,2.4-15.117a4.658,4.658,0,0,0-.343-3.441c-.942-1.328-.122-3.148.7-4.552ZM183.4,312.161c.87.174,1.86.925,1.53,1.749a1.481,1.481,0,0,1-1.361.741,5.34,5.34,0,0,0-1.625.142,1.112,1.112,0,0,1-1.383-.943,1.608,1.608,0,0,1,.949-1.541A3,3,0,0,1,183.4,312.161Zm90.144-.778a2.668,2.668,0,0,1,1.526.58,1.031,1.031,0,0,1,.084,1.469,1.5,1.5,0,0,1-.491.238,4.221,4.221,0,0,1-2.332.318,1.492,1.492,0,0,1-1.177-1.761C271.465,311.363,272.638,311.257,273.548,311.383Zm49.922-10.359a2.837,2.837,0,0,0-1.387,1.083l-2.306,2.762c-.45.54.342,1.292,1.043,1.351s1.519-.107,2.018.39a1.628,1.628,0,0,1-.12,2.025,8.531,8.531,0,0,0-1.293,1.779,2.1,2.1,0,0,0,1.308,2.641c.573.173,1.376-.093,1.381-.691q.045-5.244.612-10.466C324.789,301.3,324.05,300.884,323.47,301.024ZM206.448,302.76a4.044,4.044,0,0,1,1.022,1.2,16.105,16.105,0,0,0,11.284,6.943c1.046.127,2.28.254,2.8,1.168-.985.976-2.591.857-3.942.542a22.274,22.274,0,0,1-12.244-7.72c-.49-.613-.936-1.544-.391-2.107A1.186,1.186,0,0,1,206.448,302.76Zm114.535-16.741a24.754,24.754,0,0,0-9.5,4.151,11.639,11.639,0,0,0-4.757,8.893,14.434,14.434,0,0,1-5.673,11.443l5.945.7a2.679,2.679,0,0,0,2.021-.3c.8-.644.594-1.882.392-2.888s-.157-2.334.8-2.7c1.188-.459,2.171,1.189,1.991,2.449s-.912,2.474-.683,3.726q4.223.6,8.47,1.009a1.751,1.751,0,0,1-.339-2.009,5.129,5.129,0,0,1,1.375-1.675c.573-.524-.253-1.447-1.024-1.53s-1.679.1-2.223-.451c-.677-.689-.169-1.843.408-2.616,1.12-1.5,2.508-3.311,1.787-5.039A14.772,14.772,0,0,1,320.983,286.019ZM191.313,274.5q-.707,17.31.194,34.634c4.408-2.392,7.628-6.6,9.626-11.2a16.232,16.232,0,0,0,1.547-8.921,16.572,16.572,0,0,0-2.67-6.249A22.814,22.814,0,0,0,191.313,274.5Zm102.211-5.529c1.583-.292,2.793,1.663,2.523,3.249s-1.423,2.849-2.34,4.172a35.214,35.214,0,0,0-5.275,21.493c.322,3.1,1.171,6.282,3.266,8.587s5.687,3.458,8.448,2.015c2.372-1.239,3.554-3.972,4.1-6.591s.641-5.363,1.668-7.833c1.9-4.558,6.569-7.311,11.193-9.04a20.6,20.6,0,0,1-15.928-12.266c-.771-1.858-1.35-3.953-2.949-5.173S293.619,266.963,293.525,268.973Zm-58.753,37.172a7.622,7.622,0,0,1,1.43.423c.761.31,1.578,1.165,1.089,1.825a1.517,1.517,0,0,1-1.23.415,3.874,3.874,0,0,1-2.368-.449c-.668-.472-.9-1.615-.226-2.08A1.726,1.726,0,0,1,234.772,306.145Zm36.849-1.948a18.529,18.529,0,0,1,1.973.275,1.4,1.4,0,0,1,.873.41,1,1,0,0,1-.275,1.318,2.9,2.9,0,0,1-1.4.476,3.975,3.975,0,0,1-2.247-.084,1.374,1.374,0,0,1-.743-1.862A1.918,1.918,0,0,1,271.621,304.2ZM82.444,300.638c-.56-.006-.754.742-.737,1.3a14.207,14.207,0,0,0,.959,4.712c.163.166.352-.18.329-.412Zm107.7,4.145a.763.763,0,0,0-.273,1.031l.008.012-.007.008c-.009.011-.019.025-.03.041a.363.363,0,0,0,.311.533A2.581,2.581,0,0,0,190.148,304.783Zm-7.285-2.279c.758.168,1.582.8,1.393,1.551a1.429,1.429,0,0,1-1.152.9,10.278,10.278,0,0,0-1.513.291,1.174,1.174,0,0,1-1.471-.9,1.624,1.624,0,0,1,.836-1.639A2.692,2.692,0,0,1,182.863,302.5Zm4.389-106.29q.066,52.106,2.394,104.176l.163,3.588.024-1.154c.045-2.7.005-5.4-.034-8.093q-.695-47.429-1.389-94.859C188.391,198.548,188.286,197.041,187.252,196.214Zm49.685,101.211a2.207,2.207,0,0,1,1.129.668,1.032,1.032,0,0,1,.082,1.233,1.6,1.6,0,0,1-1.171.441l-1.827.162a1.482,1.482,0,0,1-.88-.1.942.942,0,0,1-.413-.576,1.624,1.624,0,0,1,.942-1.781A3.009,3.009,0,0,1,236.938,297.425ZM89.726,270.233c-1.9,1.867-2.888,4.448-3.8,6.95-2.545,6.973-4.963,14.375-3.707,21.691.388.071.573-.457.6-.851a84.331,84.331,0,0,1,4.187-20.756,17.565,17.565,0,0,1,3.815-7.06C90.795,269.743,90.057,269.908,89.726,270.233ZM323.32,285.487a1.3,1.3,0,0,0-.719.688,16.125,16.125,0,0,0-2.177,9.263c.095,1.327.521,2.854,1.76,3.338l3.022-2.9a1.681,1.681,0,0,0,.412-.516,1.774,1.774,0,0,0-.385-1.549c-1.435-2.336-2.513-5.3-1.318-7.762C324.064,285.741,323.652,285.405,323.32,285.487Zm20.927-2.994a1.5,1.5,0,0,0-.405.358q-4.459,5.044-8.608,10.35a3.936,3.936,0,0,0-1.123,2.507,2.659,2.659,0,0,0,1.345,1.994,7.86,7.86,0,0,0,2.346.83.779.779,0,0,0,1.071-.43,31.811,31.811,0,0,0,4.208-8.621,4.287,4.287,0,0,1,1.205-1.634,5.714,5.714,0,0,0,1.462-3.67,2.154,2.154,0,0,0-.306-1.307A.986.986,0,0,0,344.247,282.493ZM271.841,295.8a1.471,1.471,0,0,1,1.045.637c.324.669-.436,1.368-1.147,1.587a2.454,2.454,0,0,1-1.693,0,1.306,1.306,0,0,1-.81-1.377C269.45,295.647,270.848,295.557,271.841,295.8Zm-88.3-1.462a1.42,1.42,0,0,1,.446.626,1.118,1.118,0,0,1-.683,1.259,2,2,0,0,1-1.524-.071,1.584,1.584,0,0,1-1.07-1.151,1.27,1.27,0,0,1,1.115-1.29A2.192,2.192,0,0,1,183.541,294.341Zm55.1-5.492a.9.9,0,0,1,.206,1.366,2.053,2.053,0,0,1-1.449.6,5.6,5.6,0,0,0-1.587.221c-.767.3-1.6-.626-1.42-1.43a1.959,1.959,0,0,1,1.869-1.342A5.737,5.737,0,0,1,238.64,288.849Zm32.349-1.209a5.053,5.053,0,0,1,2.029.539,1.107,1.107,0,0,1,.632.626c.16.609-.6,1.028-1.224,1.146a10.725,10.725,0,0,1-1.663.187c-.689.024-1.52-.108-1.794-.741a1.218,1.218,0,0,1,.483-1.4A2.434,2.434,0,0,1,270.99,287.64ZM316.4,242.651q-6.164.994-12.377,1.648a10.494,10.494,0,0,0-7.5,4.52c-.345.514-.583,1.335-.05,1.65a11.5,11.5,0,0,1,5.789-3.579,3.72,3.72,0,0,1,2.423.019,1.629,1.629,0,0,1,.949,2.007c-.522,1.151-2.19.829-3.452.752a5.631,5.631,0,0,0-5.381,7.12c.817-3.167,5.339-4.542,7.874-2.475s2.224,6.609-.486,8.44c-.9.605-2.046,1.027-2.455,2.027a3.717,3.717,0,0,0,.323,2.691l1.583,4.066c1.107,2.841,2.282,5.787,4.521,7.857a13.953,13.953,0,0,0,6.233,3.094,22.739,22.739,0,0,0,22.7-7.821c.42-.531,1.378-.027,1.453.646a2.439,2.439,0,0,1-.841,1.78,22.522,22.522,0,0,1-8.556,5.855c-1.539.591-3.367,1.231-3.841,2.81a3.153,3.153,0,0,0,1.616,3.434,6.549,6.549,0,0,0,3.983.59,14.919,14.919,0,0,0,7.476-3.024,4.518,4.518,0,0,0,1.573-1.87,5.3,5.3,0,0,0,.145-2.319l-.058-.669a26.3,26.3,0,0,0-1.766-8.5,36.657,36.657,0,0,1-1.751-3.808,51.151,51.151,0,0,1-.833-5.1c-.347-1.689-1.227-3.443-2.835-4.066.425-1.079,1.485-1.759,2.171-2.694s.787-2.568-.294-2.991a1.986,1.986,0,0,0-1.6.228,5.244,5.244,0,0,0-2.528,5.955c.434,1.462-1.876,2.444-3.12,1.561s-1.551-2.566-1.8-4.071c-.95-5.837-2.859-12.13-7.844-15.312A2.156,2.156,0,0,0,316.4,242.651Zm-133.3,41.406c.655.212,1.309.8,1.172,1.476-.129.639-.863.938-1.506,1.047-.911.156-2.1-.023-2.354-.911-.244-.845.64-1.654,1.515-1.747A2.845,2.845,0,0,1,183.106,284.058ZM288.22,271.9a5.34,5.34,0,0,0-1.186,2.2,15.289,15.289,0,0,0-1.189,5.536,7.977,7.977,0,0,1-1.168,3.436c-.506,1.113-.781,2.539.012,3.469,1.894-1.593,2.349-4.274,2.766-6.714.5-2.917,1.175-5.941,3.062-8.221A1.83,1.83,0,0,0,288.22,271.9Zm-49.92,8.13c.488.157,1.04.47,1.046.982.007.623-.759.91-1.372,1.022l-.922.169a4.031,4.031,0,0,1-2.35-.042,1.394,1.394,0,0,1-.737-1.943,1.807,1.807,0,0,1,1.386-.557A8.047,8.047,0,0,1,238.3,280.029Zm-71.193-9c.856.41,1.815,1.217,1.5,2.112a43.322,43.322,0,0,0-26.517,2.676c-3.718,1.642-7.208,3.813-11.056,5.122a6.749,6.749,0,0,1-4.083.385,2.784,2.784,0,0,1-2.05-3.152c.365-1.253,1.761-1.849,3-2.268a187.835,187.835,0,0,1,18.566-5.239C153.306,269.111,160.775,268,167.107,271.031Zm126.72-.106a2.244,2.244,0,0,0-1.574.935A12.689,12.689,0,0,0,290,275.826a18.99,18.99,0,0,0-1.154,5.557q2.737-4.709,5.846-9.187C295.054,271.678,294.457,270.928,293.827,270.925Zm-11.182,5.593a.933.933,0,0,0-.5.1c-.329.208-.283.695-.186,1.071a18.674,18.674,0,0,0,1.275,3.469,19.3,19.3,0,0,1,1.541-4.526A17.713,17.713,0,0,0,282.645,276.518Zm-138.291-4.034L128.683,277.3c-.624.192-1.348.488-1.481,1.127a2.257,2.257,0,0,0,1.984.846,6.662,6.662,0,0,0,2.158-.609l15.9-6.5A5.212,5.212,0,0,0,144.354,272.484Zm55.125,2.93c-.281.487-.865.693-1.3,1.046s-.694,1.11-.232,1.43l2.123-2.125A1,1,0,0,0,199.479,275.414Zm55.116-.377a60.471,60.471,0,0,0,11.432.27c.984-.085,2.161-.124,2.745.672a4.262,4.262,0,0,1-2.947.887l-11.844.507c-.77.033-1.746-.065-2-.794a1.25,1.25,0,0,1,.812-1.438A3.713,3.713,0,0,1,254.6,275.038Zm58.7-4.149a4.621,4.621,0,0,1,.872,4.085,2.709,2.709,0,0,1-.453.963,2.52,2.52,0,0,1-2.555.737,5.66,5.66,0,0,1-2.386-1.426,6.167,6.167,0,0,1-1.732-2.287,2.82,2.82,0,0,1,.306-2.748,2.975,2.975,0,0,1,2.109-.97A4.62,4.62,0,0,1,313.3,270.888Zm-128,2.6a.9.9,0,0,1-.007,1.251,2.35,2.35,0,0,1-1.235.61,3.476,3.476,0,0,1-1.632.11,1.4,1.4,0,0,1-1.1-1.09c-.1-.794.735-1.414,1.524-1.539A3.173,3.173,0,0,1,185.3,273.487Zm123.8-2.335a.994.994,0,0,0,.515,1.55,1.487,1.487,0,0,1,1.218,1.645.927.927,0,0,0,1.193.9,1.428,1.428,0,0,0,.887-1.412,3.28,3.28,0,0,0-.621-1.655,3.442,3.442,0,0,0-1.392-1.36A1.525,1.525,0,0,0,309.1,271.152ZM307.09,217.66c-5.474,1-10.9,3.394-14.428,7.7s-4.752,10.74-1.991,15.572a8.05,8.05,0,0,0,4.337,3.8,5.072,5.072,0,0,0,5.386-1.36c1.417-1.723,4.278-.071,6.411-.725a36.215,36.215,0,0,1,9.1-1.558,5.366,5.366,0,0,1,2.167.229,5.788,5.788,0,0,1,1.888,1.424,23.392,23.392,0,0,1,5.1,6.446c1.832,3.965,1.379,8.8,3.693,12.506q.405-3.485.812-6.97a5.808,5.808,0,0,1,.678-2.49,1.987,1.987,0,0,1,2.213-.949,9.583,9.583,0,0,1,3.97,2.214c1.033,1.13,1.415,3.014.422,4.179-.959,1.126.129,2.754.638,4.143.883,2.406-.155,5.156.539,7.624.575,2.044,2.235,3.57,3.822,4.982a2.319,2.319,0,0,0,1.623.8,2.157,2.157,0,0,0,1.287-.814,16.517,16.517,0,0,0,4.111-8.2c.225-1.231-.2-3.023-1.442-2.855.339-2.952,3.052-4.963,4.646-7.471,1.719-2.705,2.125-6.031,2.2-9.234.079-3.22-.235-6.719-2.381-9.121a7.559,7.559,0,0,0-10.4-.448c-.7.662-1.627,1.536-2.465,1.057l1.969-3.533a16.173,16.173,0,0,0,2.38-6.094c.429-4.313-2.854-8.4-6.915-9.914s-8.645-.888-12.719.6c-1.021.372-2.227,1.17-1.95,2.221.161.609.777.976,1.093,1.52.2.339.177.447-.046.722-.134.166-.377.646-.595.552-2.309-2.674-4.807-5.474-8.193-6.486A14.983,14.983,0,0,0,307.09,217.66Zm-26.227,55.16c-.289-.171-.841-.284-.788.048a2.352,2.352,0,0,0,1.672,1.66,6.924,6.924,0,0,0,2.456.162,1.222,1.222,0,0,0,1.364-.908l.563-1.271C284.6,271.514,282.434,273.751,280.862,272.82Zm-44.214-2.767a9.774,9.774,0,0,1,1.9.335c.539.151,1.158.466,1.185,1.025.035.736-.922,1.037-1.656,1.1l-2.241.194a2,2,0,0,1-1.56-.3,1.324,1.324,0,0,1,.261-1.915A3.055,3.055,0,0,1,236.648,270.052Zm17.466-.16a53.449,53.449,0,0,0,10.788.344,1.9,1.9,0,0,1,1.229.187c.347.241.434.862.055,1.05a.921.921,0,0,1-.376.067l-13.039.492a1.65,1.65,0,0,1-1.138-.237c-.545-.454-.232-1.426.394-1.761A3.446,3.446,0,0,1,254.115,269.892Zm34.682-3.54a12.168,12.168,0,0,0-4.081.741,4.736,4.736,0,0,0-2.813,2.887.785.785,0,0,0,.1.8.857.857,0,0,0,.625.142,31.737,31.737,0,0,0,6.831-1.022c1.109-.292,2.446-1,2.3-2.134a1.677,1.677,0,0,0-1.166-1.264A4.681,4.681,0,0,0,288.8,266.352Zm-160.089-.167a12.613,12.613,0,0,0-.16,3.559c.287.31.664-.295.639-.716A13.211,13.211,0,0,0,128.708,266.185Zm74.225-1.433,23.971,1.084c.745.033,1.736.319,1.692,1.064a5.012,5.012,0,0,1-3.31.354,107.57,107.57,0,0,0-21.474-.341,3.359,3.359,0,0,1-1.823-.181,1.134,1.134,0,0,1-.548-1.543A1.665,1.665,0,0,1,202.933,264.752Zm-19.375-.838a1.739,1.739,0,0,1,.973.393,1.387,1.387,0,0,1-.479,2.051,4.011,4.011,0,0,1-2.382.283c-.889-.077-1.177-1.41-.594-2.085A2.714,2.714,0,0,1,183.558,263.914Zm28.1-2.955,39.067,2.027c.7.036,1.62.3,1.583,1a16.608,16.608,0,0,1-6.5-.126l1.892,1.628a5.971,5.971,0,0,1-2.929,1.18,2.056,2.056,0,0,1-2.2-1.828l1.619-.747a291.481,291.481,0,0,0-31.644-.985,3.129,3.129,0,0,1-1.774-.307,1.075,1.075,0,0,1-.349-1.556A1.569,1.569,0,0,1,211.66,260.959Zm84.321,1.742a2.257,2.257,0,0,0-1.231.634l-1.293,1.058a2.123,2.123,0,0,0-.967,1.394c-.014.316.226.692.535.621a.688.688,0,0,0,.233-.123l3.081-2.173a1.131,1.131,0,0,0,.5-.562C296.964,263.1,296.45,262.675,295.981,262.7Zm15.974-3.794a14.791,14.791,0,0,1-.67,3.087c-.187,1.04.169,2.365,1.2,2.609a.512.512,0,0,1,.22.766,1.172,1.172,0,0,1-.8.429,2.336,2.336,0,0,1-2.519-1,3.3,3.3,0,0,1-.249-1.421q-.05-1.947-.1-3.894c-.023-.887.077-1.98.889-2.338C310.888,256.721,311.915,257.85,311.955,258.906Zm-14.165,5.888a.556.556,0,0,0-.314.5l-.047.012a.362.362,0,1,0,.361-.51Zm-1.8-6.783a1.444,1.444,0,0,0-1.167.436,1.108,1.108,0,0,0,.118,1.283,4.139,4.139,0,0,0,1.076.856A9.957,9.957,0,0,1,299.688,265l1.538-2.025a2.481,2.481,0,0,0,.706-1.708,2.1,2.1,0,0,0-.686-1.158A7.259,7.259,0,0,0,295.993,258.011ZM130.835,247.569c-.6.049-.914.726-1.1,1.3l-.865,2.623a9.739,9.739,0,0,0-.686,4.92q.213,3.116.425,6.231c.027.4.333.956.665.729A63.947,63.947,0,0,1,130.835,247.569Zm170.343,7.637c-.547.208-1.128.574-1.207,1.153s.774,1.118,1.105.635c.422-.616,1.478-.294,1.828.366a4.588,4.588,0,0,1,.241,2.2,2.153,2.153,0,0,0,.817,1.969q.164-1.5.327-3c.135-1.233.127-2.762-.957-3.365A2.6,2.6,0,0,0,301.178,255.206Zm17.554-.564a2.861,2.861,0,0,1,2.32,1.093,1.491,1.491,0,0,1-.627,2.2c-1.221.342-2.362-1.378-3.555-.951-.746.267-1.207,1.316-1.984,1.166a.973.973,0,0,1-.654-1.153,2.116,2.116,0,0,1,.841-1.173A5.554,5.554,0,0,1,318.732,254.642Zm-135.878-.878c.855.138,1.693,1.074,1.242,1.814a1.36,1.36,0,0,1-.548.469,2.035,2.035,0,0,1-1.742.131,1.333,1.333,0,0,1-.789-1.464A1.592,1.592,0,0,1,182.854,253.764Zm137.269-4.87c.589.56,1.047,1.614.388,2.089-.7.5-1.532-.346-2.2-.888a3.448,3.448,0,0,0-2.7-.715c-.606.1-1.176.364-1.784.452a1.65,1.65,0,0,1-1.646-.568,1.419,1.419,0,0,1,.352-1.741,3.035,3.035,0,0,1,1.784-.648A7.548,7.548,0,0,1,320.123,248.893Zm-137.3-1.715a1.231,1.231,0,0,1,.516,1.568c-.386.706-1.4.7-2.18.5a1.394,1.394,0,0,1-.763-.384c-.444-.53.054-1.361.674-1.668A1.883,1.883,0,0,1,182.825,247.178Z" transform="translate(-7.642 -18.105)" fill="#00160a" fill-rule="evenodd"/><path d="M137.023,443.433a.867.867,0,0,1,.056.618c-.147.35-.626.364-1.007.361a5.515,5.515,0,0,0-5.347,4.941c-.02.282-.407.411-.657.28a1.1,1.1,0,0,1-.466-.681,5.88,5.88,0,0,1,.605-4.6,10.565,10.565,0,0,1,3.291-3.4,1.932,1.932,0,0,1,1.714-.462,1.866,1.866,0,0,1,.834.864A12.484,12.484,0,0,1,137.023,443.433Zm-1.553-.3a1.48,1.48,0,0,0-1.9-.724,4.3,4.3,0,0,0-1.718,1.442,3.51,3.51,0,0,0-1,1.868A8.916,8.916,0,0,1,135.471,443.13Z" transform="translate(-32.338 -143.387)" fill="#0559ff" fill-rule="evenodd"/></g></svg>