<svg xmlns="http://www.w3.org/2000/svg" width="300" height="240.883" viewBox="0 0 300 240.883"><g transform="translate(-0.872 -0.004)"><path d="M173.542,252.3c35.915,0,67.433-26.716,49.733-63s48.067-35.115,67.387-60.194C314.222,98.515,307.4-31.314,156.148,47.836,131.92,60.515,69.7,34.792,49.056,47.555c-24.3,15.023-58.477,45.786-24.3,77.3,16.837,15.522-43.529,55.811-17.09,91.9,25.8,35.213,43.882,1.645,83.159,8.827S146.868,252.3,173.542,252.3Z" transform="translate(0 -11.409)" fill="#ebf2ff" fill-rule="evenodd"/><path d="M265.022,317.38s8.27-3.89,11.357-6.6,6.925-9.43,6.925-9.43,42.16,30.448,69.65,26.1c6.334-1,18.675-5.211,19.462-12.629,2.149-20.256-27.585-25.432-21.09-35.7,3.964-6.27,16.28,3.062,16.28,3.062l51.083,25.127s-17.648,43.5-60.475,45.245C305.532,354.7,265.022,317.38,265.022,317.38Z" transform="translate(-133.167 -139.622)" fill="#fff"/><path d="M124.627,10.9c-.48-.188-3.054-3.341-6.323-3.915-1.485-.261-.137,1.631-1.772,1.648-4.869.051-12.781-.864-14.247,0-1.089.64,1.31,2.876,0,2.979-12.358.969-31.211,13.307-35.3,19.294-1.3,1.905,9.226-1.327,7.549-.385-1.883,1.057-3.971,7.979-5.219,13.324a73.846,73.846,0,0,0-1.6,13.572c-.16,4.449-.1,5.186.544,7.619.736,2.721,1.312,3.521,2.3,3.137.352-.128.512-.608.512-1.5a28.446,28.446,0,0,1,.864-4.706l.832-3.393.352,1.409c.448,1.632,3.073,6.69,5.442,10.371.128.2.677-.053,1.173-1.251.452-1.092.268-2.836,1.036-4.7a53.781,53.781,0,0,1,9.153-14.226c5.873-6.549,7.821-14.129,13.327-20.213C113.528,18.6,126.422,11.6,124.627,10.9Z" transform="translate(-33.273 -3.507)" fill="#fff" fill-rule="evenodd"/><path d="M77.188,57.548C75.54,58.873,73.094,69.623,73.052,69.8c-.864,3.681-1.7,16.465-.846,18.885s3.236-6.3,3.236-6.3,3.6,9.359,6.789,11.925c.136.11-3.785-11.579-5.043-18.4C75.528,66.9,78.126,56.794,77.188,57.548Z" transform="translate(-35.782 -28.99)" fill="#e7eaee" fill-rule="evenodd"/><path d="M137.178,329.344c3.073-.672,8.258-3.013,10.244-3.813s8.035-9.343,10.211-18.978c1.568-7.106,2.369-17.222,1.472-18.918-.132-.241-.616-4.841.672-3.339,2.865,3.339,6.266,8.58,17-.812,2.923-2.558,6.8-5.86,5.777-8.778-2.854-8.166-15.226-24.609-17.111-25.854-2.255-1.49-13.653-.224-30.615-5.23-19.237-5.678-27.246-22.4-34.774-20.22-6.088,1.76-20.674,12.576-24.334,19.426-17.282,32.336,3.661,54.995,8.43,61.5l4.631,2,.16,4.13.224,2.593c.417,4.962.576,5.41,2.817,7.075,5.6,4.257,16.646,8.226,26.633,9.635C123.253,330.4,133.336,330.177,137.178,329.344Z" transform="translate(-34.343 -112.524)" fill="#fff" fill-rule="evenodd"/><path d="M111.855,341.345l.224,2.592c.417,4.962.576,5.41,2.817,7.075,3.3,2.512,8.5,4.923,14.262,6.768a76.123,76.123,0,0,0,12.371,2.868c4.642.64,14.725.416,18.566-.416,1.9-.411-13.719-12.681-22.92-9.219-7.066,2.659-23.719-17.622-16.948-22.92,7.6-5.944-6.323-29.387-6.771-34.476s-2.213-6.305-2.265-6.127a9.886,9.886,0,0,0,.087,2.255C111.876,296.068,111.855,341.345,111.855,341.345Z" transform="translate(-55.6 -144.922)" fill="#e7eaee" fill-rule="evenodd"/><path d="M108.179,296.909a1.239,1.239,0,0,1,1.453.98c2.416,12.412,12.635,20.815,30.909,25.209,18.382,4.42,30.9,4.182,37.5-.536.557-.4.142,3.012-.266,3.274-4.3,2.759-18.933,6.877-36.391,3.155-22.322-4.758-32.8-23.527-34.186-30.628A1.24,1.24,0,0,1,108.179,296.909Z" transform="translate(-53.591 -149.668)" fill="#0559ff" fill-rule="evenodd"/><path d="M89.792,251.767c.594-.34,22.765,25.07,53.192,30.822s37.793,2.094,38.977-5.752a1.24,1.24,0,0,1,2.452.37c-1.5,9.943-15.58,12.308-41.846,7.826q-38.9-6.639-53.235-31.574A1.24,1.24,0,0,1,89.792,251.767Z" transform="translate(-44.513 -126.92)" fill="#0559ff" fill-rule="evenodd"/><path d="M204.3,123.438a5.343,5.343,0,0,1-2.3-1.665l-.96-1.185,3.393-3.361a70.393,70.393,0,0,0,12.676-16.614c1.152-2.081,4.065-9.027,4.065-9.7a10.4,10.4,0,0,1,.769-2.049,4.873,4.873,0,0,1,2.5-2.625c1.632-.96,3.489-1.28,4.289-.736,1.537,1.024,1.537,4.258,0,9.827-1.7,6.114-3.969,10.5-8.675,16.806-.736.96-2.113,2.849-3.105,4.161-2.657,3.521-4.385,5.218-6.722,6.53C207.921,124.11,206.576,124.27,204.3,123.438Zm22.983-2.881,2.3,1.024c.478.22,5.751,2.754,12.083,5.8,10.21,4.906,23.178,11.137,23.257,11.137a6.489,6.489,0,0,0,.864-3.009,44.106,44.106,0,0,1,2.881-11.524,21,21,0,0,0,1.152-3.473,5.678,5.678,0,0,0-1.372-.627c-1.015-.409-2.5-1.008-4.134-1.791-8.067-3.873-23.848-11.78-25.8-12.964-1.921-1.12-2.3-1.216-2.3-.48,0,.96-1.952,5.41-3.457,7.81-.8,1.313-2.369,3.681-3.489,5.25Zm37.1,12.2c.918.532-.672,1.313-1.056,1.44a12.407,12.407,0,0,1-7.107-1.5c-1.14-.809-10.123-5.8-16.081-9.109-2.724-1.513-4.816-2.676-5.237-2.927a20.85,20.85,0,0,1-2.849-1.921c-.672-.864-.032-1.248,1.857-1.088C235.049,117.74,262.405,131.6,264.388,132.753Zm-130.124,83.8a61.545,61.545,0,0,0,8.743-3.188c.6-.252,1.11-.469,1.5-.626,1.985-.8,8.035-9.343,10.211-18.978,1.568-7.106,2.369-17.221,1.473-18.918-.54-.982,2.67,2.314,5.061,4.769.725.744,1.375,1.411,1.821,1.858,13.957,13.861,34.732,25,56.307,30.218a109.784,109.784,0,0,0,28.682,3.553c17.254,0,30.858-3.393,43.214-10.852.587-.355,1.137-.68,1.661-.99,4.307-2.55,6.873-4.07,13.9-11.974,7.877-8.867,14.885-29.45,17.222-36.556,1.024-3.2,3.521-15.933,3.521-19.11a9.22,9.22,0,0,0-3.105-7.363c-3.169-3.105-7.459-4.225-11.012-2.881l-1.665.64-.512-1.7a10.656,10.656,0,0,0-4.641-6.146c-3.521-2.337-4.033-2.5-7.2-2.5a8.662,8.662,0,0,0-4.706.864l-1.825.832-.384-1.152c-.736-2.369-3.206-5.671-5.122-6.626a12.22,12.22,0,0,0-6.69-.544c-4.482.832-7.682,2.913-9,5.826-.384.9-.864,1.6-1.056,1.6a101.17,101.17,0,0,1-13.989-5.091l-3.58-1.588c-13.508-5.988-16.437-7.285-16.17-8.911A6.1,6.1,0,0,0,236.7,97.7c-.672-1.985-1.44-2.529-3.617-2.529-1.729,0-1.729,0-1.537-.864,1.024-4.9.993-7.715-.1-9.507-.736-1.185-1.6-1.665-3.586-1.953a3.911,3.911,0,0,0-2.977.64,5.819,5.819,0,0,1-1.665.7,29.188,29.188,0,0,1,.512-3.9c2.625-15.4.6-28.664-6.093-42.748-.064-.135-.138-.294-.223-.477-2.034-4.367-10.212-21.925-33.6-30.784-1.059-.4-2.06-.789-3.023-1.161h0C172.827,2.033,167.53-.017,154.751,0c-14.324.024-19.175,2.049-28.618,6.37a6.425,6.425,0,0,1-2.561.832,5.255,5.255,0,0,0-1.313-.864c-.608-.32-1.921-1.12-2.881-1.761-2.753-1.857-4.449-2.625-5.314-2.433-.992.256-.992,1.088,0,1.472a2.241,2.241,0,0,1,1.088,1.248c.416,1.152.9,1.28,1.184.32.128-.352.32-.608.417-.544.036.018.158.075.344.162h0c.468.219,1.341.628,2.281,1.086,1.313.64,2.753,1.312,3.137,1.473.7.256.48.448-2.561,2.241A66.522,66.522,0,0,0,93,39.794a10.167,10.167,0,0,1-2.337,3.649,39.389,39.389,0,0,0-6.69,8.1,17.837,17.837,0,0,1-2.3,3.425A24.019,24.019,0,0,0,79.782,57.5c-.256.512-.512.864-.608.8a21.867,21.867,0,0,1,.256-3.489c.48-4.258.48-5.378.1-5.474-.576-.16-1.408,2.081-1.761,4.866a35.818,35.818,0,0,0-.16,6.882l.192,4.162-2.273-3.681c-.781-1.231-1.551-2.462-2.1-3.336h0v0h0c-.347-.555-.6-.965-.715-1.139-.832-1.216-1.312-3.041-.96-3.649.192-.352.16-.512-.16-.512-.672,0-1.985,2.145-2.849,4.61a7.223,7.223,0,0,1-.96,2.112c-.48,0-.256-11.46.256-15.141,1.056-7.266,3.841-16.229,5.09-16.229.256,0,.48-.128.48-.32,0-.576-.832-.352-1.5.384-1.5,1.633-3.489,6.658-4.738,12a73.843,73.843,0,0,0-1.6,13.573c-.16,4.449-.1,5.186.544,7.619.736,2.721,1.312,3.521,2.3,3.137.352-.128.512-.608.512-1.5a28.452,28.452,0,0,1,.864-4.706l.832-3.393.352,1.409c.448,1.632,3.073,6.69,5.442,10.371,1.633,2.5,1.665,2.657,2.209,6.562A149.746,149.746,0,0,0,82.086,89.25c1.839,7.3,12.174,14.545,14.755,16.354h0c.339.238.544.381.577.419a1.132,1.132,0,0,0,1.024.448c.288-.1.448.032.448.384a1.325,1.325,0,0,0,.48.928c.32.224.544,1.088.608,2.593.16,3.009,2.4,8.771,4.129,10.66,1.121,1.216,3.457,1.729,6.05,1.28,1.7-.256,2.177-.448,2.017-.832-.1-.256.512.064,1.345.7,9.731,7.427,19.59,11.876,30.666,13.8a78.166,78.166,0,0,0,15.269.864c3.425-.224,3.425-.224,3.265.448-.224.9.064,1.441,4.769,9.411,3.745,6.306,4.066,6.722,8.227,10.98A107.288,107.288,0,0,0,205.1,179.361c10.275,5.121,26.681,9.379,41.678,10.724s25.768-12.42,25.736-15.942c-.064-4.834-.736-8-2.369-11.076-1.6-2.977-2.657-4-7.459-7.2-5.345-3.553-8.642-6.466-10.819-9.571a10.236,10.236,0,0,1-1.889-5.346,3.624,3.624,0,0,1,2.465-2.849c1.344-.352,1.6-.32,3.105.416.9.417,3.233,1.5,5.154,2.433,1.953.9,3.841,1.793,4.225,1.985,1.133.314,1.612,2.531,1.871,3.733.058.268.105.486.146.62a9.47,9.47,0,0,0,3.938,4.546c2.4,1.285,8.323,1.457,9.956-.3a3.264,3.264,0,0,1,2.08-.833,4.36,4.36,0,0,1,1.313,2.673c.032,1.921,1.024,3.681,3.137,5.442,4,3.329,7.107,4.13,10.244,2.657a15.984,15.984,0,0,1,2.971-1.068A9.934,9.934,0,0,1,302,162.683c.629,4.548,7.362,6.455,9.155,6.647a8.777,8.777,0,0,0,2.022-.313c1.086-.239,2.194-.482,2.427-.22.457.516-7.651,13.925-8.771,15.621-10.66,16.006-31.4,25.8-56.787,26.825-16.486.672-36.748-3.938-54.322-12.324A138.868,138.868,0,0,1,163.874,177.6c-1.857-1.6-4-3.425-4.77-4.065a32.059,32.059,0,0,1-4-4.61c-2.369-3.2-3.714-4.354-3.714-3.265,0,.48,1.537,3.425,3.3,6.338.7,1.152,1.152,1.953.993,1.825s-.672,2.176-1.152,5.121c-1.569,9.443-4.161,18.759-6.786,24.552a18.072,18.072,0,0,1-5.035,6.12c-3.073,2.337-7.673,3.387-14.043,4.027-8.067.8-19.943-.992-29-4.385-2.4-.9-8.579-3.489-9-3.777-.025-.025-.167-.946-.364-2.231-.056-.362-.116-.754-.179-1.162-1.152-7.907-2.753-38.349-2.753-52.434,0-5.826-.064-7.106-.448-7.106-.8,0-1.12.769-1.472,3.521-.8,6.274-.64,39.021.224,45.9l.192,1.569-1.088-.608c-1.665-.96-8-7.394-10.211-10.372a30.731,30.731,0,0,1-3.813-8.243c-.193-.567-.372-1.09-.541-1.549-4.642-12.868-3.009-27.308,3.393-40.3,5.442-11.076,12.132-17.221,21.928-20.2a22.731,22.731,0,0,0,3.169-1.12c.608-.576-3.3-.288-5.442.384-6.978,2.145-14.277,8-19.238,15.493-6.978,10.5-10.115,25.993-7.907,39.213.512,3.137,2.593,9.923,3.169,10.4.051.051.314.6.712,1.439a65.234,65.234,0,0,0,4.761,8.8,68.606,68.606,0,0,0,9.8,9.731l1.473,1.056.224,2.593c.416,4.962.576,5.41,2.817,7.075,5.6,4.258,16.646,8.226,26.633,9.635C120.34,217.613,130.423,217.389,134.264,216.557Zm108.2-30.058c-18.6-1.632-41.07-10.5-57.332-24.2-6.85-5.794-15.749-17.061-19.27-23.3-.736-1.281-1.28-1.889-1.921-2.049-.672-.192-.1-.384,2.657-.832a74.839,74.839,0,0,0,32.043-13.7l1.344-.992.384.928c.864,2.081,4.193,4.194,6.658,4.194.992,0,4.321-1.5,6.338-2.881l1.377-.928,1.12,1.12c1.024,1.024,1.216,1.088,3.137,1.088a10,10,0,0,0,6.338-2.4l.8-.736,2.273,1.5c1.216.864,4.61,2.753,7.522,4.257,4.354,2.241,8.963,4.834,13.349,7.523l.7.448-.672.9A9.056,9.056,0,0,0,247.3,142c0,3.137,3.262,8.773,9.506,12.644,4.906,3.041,13.349,9.023,13.028,17.766-.039,1.056-1.216,3.681-2.785,6.05a20.107,20.107,0,0,1-6.466,5.058C256.161,185.731,248.383,187.011,242.461,186.5ZM71.779,42.8c.864.192,1.44.48,1.312.608-.416.416-2.625.224-3.137-.288-.8-.768-.608-1.312.512-1.536a4.25,4.25,0,0,0,1.921-1.056c.48-.48.9-.7.9-.544,0,.416-1.6,1.889-2.4,2.209C70.371,42.418,70.531,42.514,71.779,42.8Zm12.74.512c.928-.512.736-.864-.352-.7s-1.152.032-.448-1.056A2.122,2.122,0,0,0,84.1,40.21c-.1-.416-.32-.224-.832.8-.384.736-.928,1.344-1.185,1.344-.8,0-.864.64-.1.928A2.812,2.812,0,0,0,84.52,43.315ZM73.444,25.837a29.3,29.3,0,0,0-5.282,2.145,44.544,44.544,0,0,1-4.1,1.857c-3.265-.352,1.28-5.794,9.539-11.364,7.906-5.346,13.252-8.163,18.214-9.6,3.105-.9,6.595-1.024,7.587-.288.544.416.352.448-2.017.48-5.122,0-11.044,2.625-20.679,9.059-4.994,3.329-10.788,8.1-10.788,8.867,0,.16.928-.16,2.081-.672,2.465-1.12,4.994-1.7,6.114-1.44C75.3,25.2,75.044,25.613,73.444,25.837ZM85.832,28.59c3.009-.608,3.137-.64,3.137-.96a6.342,6.342,0,0,0-2.593-.384l-2.593-.1,2.4-2.721a26.183,26.183,0,0,1,3.393-3.361c1.185-.768,1.249-1.312.288-1.633l-.736-.224.8-.288a4.412,4.412,0,0,1,1.857-.128c.864.128,1.056.064.96-.384s-.448-.544-2.017-.512c-4.577.064-6.53,1.28-2.945,1.857.992.16,1.825.416,1.825.576,0,.128-.16.256-.352.256-.608,0-5.762,5.218-6.4,6.5C81.863,28.974,82.407,29.262,85.832,28.59Zm21.127-12.42c-.928.064-1.152.224-1.088.672l.01.065c.036.237.057.373,0,.414-.072.056-.278-.061-.762-.336l-.084-.048c-.608-.32-.672-.48-.32-.736a3.584,3.584,0,0,1,1.313-.576l.9-.224-.672-.7c-.353-.416-.544-.8-.448-.928a8.654,8.654,0,0,1,3.841.448.5.5,0,0,0,.672-.064c.448-.448,1.056-.1,1.056.608,0,.384-.1.416-.384.128a.5.5,0,0,0-.769-.032c-.256.224-.448.224-.608-.032a2.159,2.159,0,0,0-1.344-.32c-.591,0-.87,0-.927.113s.077.292.319.656c.511.8.48.8-.693.9Zm-4.866-8.515a2.92,2.92,0,0,0-.864-1.633l-.9-.9,4.8.192a45.38,45.38,0,0,1,6.722.7,16,16,0,0,0,2.721.448c.672,0,.544-.128-.7-.8-2.177-1.12-4.962-1.665-10.308-2.049-6.4-.448-9.635.16-9.027,1.761.1.32.608.48,1.377.48a9.1,9.1,0,0,1,4.994,1.793C101.837,8.583,102.093,8.583,102.093,7.655ZM86.472,92.419a65.256,65.256,0,0,0,7.619,8.387,21.962,21.962,0,0,0,1.857,1.409c.032,0-.672-1.473-1.568-3.265a66.472,66.472,0,0,1-6.722-22.631,12.61,12.61,0,0,0-.96-4,4.62,4.62,0,0,1,.032-4.513,6.874,6.874,0,0,0,.64-3.041V63l-1.537,1.6c-1.5,1.568-2.945,2.209-2.945,1.248,0-.7,2.369-4.1,3.617-5.154.992-.833,1.12-1.121,1.44-3.617.224-1.5.736-4.161,1.152-5.922a17.829,17.829,0,0,0,.64-3.329C89.513,47.6,81.991,56.244,80.966,59a11.475,11.475,0,0,1-1.312,2.3l-.832,1.069s.259,1.5.544,3.377c.289,1.9.424,3.206.545,4.369a43.668,43.668,0,0,0,.736,4.982A45.2,45.2,0,0,0,81.8,80.159c.1.192.512,1.665.929,3.3A27.677,27.677,0,0,0,86.472,92.419Zm129.9,30.282-.672-.672s11.157-14.175,13.156-19.4c1.525-3.986,2.423-5.116,3.635-5.116a1.721,1.721,0,0,1,1.487.539c.448.672.88,1.5.3,4.353-.96,4.61-2.433,7.651-6.85,14.213a33.836,33.836,0,0,1-2.913,3.745,14.7,14.7,0,0,1-6.13,2.817C217.268,123.342,216.948,123.278,216.372,122.7Z" transform="translate(-31.321)" fill="#00160a" fill-rule="evenodd"/><path d="M513.246,267.369c3.983-10.851,3.38-13.163,2.689-13.389a5.507,5.507,0,0,0-2.193,2.689c-1.248,3.425-5.521,12.388-7.122,13.988-1.889,1.889-1.889,1.889-3.81,1.889s-7.46-2.892-8.214-5.744c-1.206-4.561,3.989-20.409,4.117-21.305l-.864-.608c-.576.544-8.071,23.272-17.926,17.35-1.129-.678-3.522-3.873-3.714-5.57-1.067-4.93,3.828-22.168,4.66-25.708.745-3.169,4.624-6.111,9.393-6.111,7.33,0,6.346,6.408,9.629,8.666,1.455,1,3.846-.814,4.583-.951,4.13-.769,5.712.126,8.739,2.528,2.337,1.855,4.066,5.525,5.969,6.819,1.057.718,2.179-.264,2.546-.448,1.506-.756,4.738-.192,5.633.448,1.314.573,4.534,3.668,5.042,5.468,2.306,8.159-4.974,26.247-7.723,29.64C520.133,282.637,509.263,278.219,513.246,267.369Z" transform="translate(-239.557 -113.352)" fill="#fff"/><path d="M149.155,127.315c8.771,5.538,17.815,9.155,28.122,10.147a74.069,74.069,0,0,0,26.968-2.849c6.626-2.145,15.59-8.086,21.575-13.112,11.62-9.731,18.951-24.932,22.152-41.065a80.635,80.635,0,0,0,1.1-13.652c0-6.595-2.9-24.615-11.695-35C219.241,10.35,189.43.7,164.375,8.945a69.709,69.709,0,0,0-25.927,15.409,68.035,68.035,0,0,0-18.6,33.515c-2.817,13.125.847,28.81,7.218,41.678C132.157,109.79,140.544,121.841,149.155,127.315Zm85.469-38.684c-6.018,18.086-21.7,31.595-41.422,35.692a44.114,44.114,0,0,1-9.315.9c-2.977.1-5.954.064-6.562,0-13.8-1.665-24.3-6.754-33.963-16.422a46.029,46.029,0,0,1-8.642-11.107,53.317,53.317,0,0,1-7.011-23.432c-2.3-30.378,19.431-55.7,50.033-58.323a55.224,55.224,0,0,1,35.436,9.827c3.745,2.657,10.532,9.379,12.644,12.516.864,1.248,9.251,13.509,10.724,20.551A60.989,60.989,0,0,1,234.624,88.631Z" transform="translate(-59.496 -3.03)" fill="#fff" fill-rule="evenodd"/><path d="M308.445,128.556c0,21.486-10.163,44.976-23.28,55.008-6.258,4.786-14.436,10.582-21.558,12.821-10.437,3.281-26.968,2.849-26.968,2.849s16.865-2.255,23.115-4.77c17.923-7.212,27.706-18.284,33.747-28.908C305.427,144.586,308.445,128.034,308.445,128.556Z" transform="translate(-118.858 -64.801)" fill="#e7eaee" fill-rule="evenodd"/><path d="M190.361,133.718a57.31,57.31,0,0,1-23.88-8.643,58.062,58.062,0,0,1-13.189-13.349,55.168,55.168,0,0,1-8.451-20.615,56.81,56.81,0,0,1,.032-18.342,51.44,51.44,0,0,1,4.674-13.285,49.5,49.5,0,0,1,9.923-13.765A51.534,51.534,0,0,1,185.56,31.443c3.3-.7,15.237-1.28,15.653-.736a5.677,5.677,0,0,0,1.409.928,32.6,32.6,0,0,1,3.937,3.041,23.336,23.336,0,0,1,5.122,6.146,35.015,35.015,0,0,1,2.369,4.065c0,.352,1.024.992,1.6.992.8,0,1.345-2.4,1.505-6.626A19.684,19.684,0,0,1,217.571,35a55.635,55.635,0,0,1,7.682,4.257,52.67,52.67,0,0,1,12.356,11.652c1.5,1.985,1.729,2.5,1.729,3.713a6.992,6.992,0,0,0,1.313,3.713,52.65,52.65,0,0,1,5.634,15.878,54.744,54.744,0,0,1-.032,16.005c-2.177,11.716-8.643,23.368-17.062,30.763A50.745,50.745,0,0,1,205.5,132.95,75.9,75.9,0,0,1,190.361,133.718Zm-22.888-21.9a1.26,1.26,0,0,0,.384-1.024,5.065,5.065,0,0,0-1.017-.532c-1.368-.643-3.745-1.761-4.776-2.926-4.1-4.674-5.6-8.162-6.53-15.365-.9-7.011-.143-11.75,1.472-19.367a24.828,24.828,0,0,1,4.187-8.694c.887-1.3,1.407-2.061.9-2.125-1.249-.192-1.44-.1-2.753,1.152a18.622,18.622,0,0,0-5.442,8.963c-2.081,6.466-2.483,23.941,1.634,31.818S166.737,112.655,167.474,111.823Zm45.519-26.889c-.543,4.973-2.849,12.164-5.538,15.3-1.248,1.472-5.831,4-9.7,3.489-3.736-.494-6.658-2.24-9.155-5.986-2.145-3.233-3.252-7.158-4-12.1-1.293-8.535,4.354-18.471,6.786-20.935,2.464-2.529,4.225-3.425,6.466-3.457a8.812,8.812,0,0,1,5.794,2.049C207.679,66.111,214.049,75.27,212.993,84.934Zm-43.15-26.473c.64-.736.736-1.088.544-2.465a2.852,2.852,0,0,0-1.057-2.337,2.727,2.727,0,0,0-3.745.064c-.768.736-.864.992-.768,2.753.1,1.889.16,2.017,1.216,2.593A2.9,2.9,0,0,0,169.842,58.461ZM189.817,38.71c-5.762,4.129-8.259,5.826-10.852,7.427-2.048,1.28-2.689,1.312-2.689.16,0-.608.448-1.28,1.6-2.337l1.6-1.472-3.105-.416c-3.489-.448-6.882-1.409-7.618-2.145-1.216-1.248-.16-1.537,3.3-.9a59.724,59.724,0,0,0,6.626.64l3.841.16,2.785-2.017c6.114-4.417,12.452-6.914,15.493-6.146,1.889.448,1.665.96-.48,1.216C197.852,33.172,196.347,34,189.817,38.71Z" transform="translate(-72.213 -15.37)" fill="#fff" fill-rule="evenodd"/><path d="M252.873,169.007c0-.16.192-.32.448-.32a.9.9,0,0,1,.672.32c.1.192-.1.32-.448.32C253.161,169.327,252.873,169.2,252.873,169.007Z" transform="translate(-127.042 -85.039)" fill="#fff"/><path d="M256.746,168.068c0-.352.8-.672,1.7-.672.7.032.7.032.1.48C257.834,168.42,256.746,168.516,256.746,168.068Z" transform="translate(-128.994 -84.388)" fill="#fff"/><path d="M246.387,165.608c-.1-.256-.224-.7-.32-.96q-.144-.48.48-.48c.352,0,.64.192.64.448a3.643,3.643,0,0,0,.192.96c.128.353.032.512-.32.512A.736.736,0,0,1,246.387,165.608Z" transform="translate(-123.597 -82.76)" fill="#fff"/><path d="M250.125,164.157c-.16-.96.192-1.28,1.344-1.28.352,0,.64.32.768.864.256.928-.16,1.377-1.28,1.377C250.445,165.118,250.221,164.894,250.125,164.157Z" transform="translate(-125.638 -82.11)" fill="#fff"/><path d="M243.121,165.294c-.608-.48-.608-.48.064-.48.417,0,.7.192.7.48C243.89,165.87,243.89,165.87,243.121,165.294Z" transform="translate(-121.9 -83.086)" fill="#fff"/><path d="M256.322,163.651c-.416-.416-.224-1.665.288-1.857.928-.352,1.344-.192,1.536.64a1.978,1.978,0,0,1,.128.928A2.868,2.868,0,0,1,256.322,163.651Z" transform="translate(-128.667 -81.475)" fill="#fff"/><path d="M262.1,162.442a1.769,1.769,0,0,1-.192-.9c0-.544.256-.768,1.024-.928.672-.128,1.088-.064,1.28.192.32.512.32,1.152.032,1.313A3.462,3.462,0,0,1,262.1,162.442Z" transform="translate(-131.598 -80.938)" fill="#fff"/><path d="M240.608,161.408a.846.846,0,0,1,.7-.8c.832-.224.8-.256.961.576.064.48-.1.672-.769.736C240.8,162.017,240.608,161.889,240.608,161.408Z" transform="translate(-120.859 -80.897)" fill="#fff"/><path d="M245.292,161.026c-.448-.48-.16-1.377.448-1.377a.566.566,0,0,1,.64.608C246.381,160.865,245.644,161.378,245.292,161.026Z" transform="translate(-123.11 -80.482)" fill="#fff"/><path d="M249.323,159.414c-.256-.608.288-1.056,1.344-1.056.48,0,.7.192.7.608a.9.9,0,0,1-.7.8C249.611,160.023,249.547,160.023,249.323,159.414Z" transform="translate(-125.221 -79.831)" fill="#fff"/><path d="M267.952,159.969c.1-.16.256-.32.352-.32s.064.16-.032.32c-.1.192-.256.32-.352.32S267.856,160.161,267.952,159.969Z" transform="translate(-134.598 -80.482)" fill="#fff"/><path d="M255.112,158.042c-.256-.64.064-.96,1.088-1.12.576-.064.832.064.9.512C257.32,158.491,255.5,159.067,255.112,158.042Z" transform="translate(-128.128 -79.1)" fill="#fff"/><path d="M239.546,156.928c-.288-1.057-.224-1.152.608-1.152.448,0,.8.128.8.288a2.959,2.959,0,0,0,.192.768c.1.32-.1.512-.64.608C239.9,157.569,239.674,157.441,239.546,156.928Z" transform="translate(-120.245 -78.53)" fill="#fff"/><path d="M261.265,156.323c0-.576.224-.833.833-.993.9-.224,1.408.224,1.408,1.249,0,.416-.256.544-1.12.544C261.393,157.124,261.265,157.028,261.265,156.323Z" transform="translate(-131.273 -78.277)" fill="#fff"/><path d="M237.721,156.9c-.1-.256-.032-.48.128-.48.192,0,.32.224.32.48s-.064.48-.128.48S237.849,157.157,237.721,156.9Z" transform="translate(-119.381 -78.855)" fill="#fff"/><path d="M244.055,156.35a.929.929,0,0,1,.384-1.472,1.042,1.042,0,0,1,.8.032,1.026,1.026,0,0,1-.32,1.473C244.312,156.606,244.312,156.606,244.055,156.35Z" transform="translate(-122.482 -78.048)" fill="#fff"/><path d="M267.2,155.667c-.353-.928.032-1.632.928-1.729.672-.1.864.032.864.544,0,1.056-.352,1.632-.993,1.632A.864.864,0,0,1,267.2,155.667Z" transform="translate(-134.2 -77.588)" fill="#fff"/><path d="M248.581,155.364a.7.7,0,0,1,.288-1.185c.608-.224,1.889.417,1.537.769C249.957,155.331,248.805,155.619,248.581,155.364Z" transform="translate(-124.766 -77.701)" fill="#fff"/><path d="M254.372,153.764c-.288-.448.736-1.216,1.569-1.216.384,0,.544.192.48.544C256.293,153.733,254.66,154.244,254.372,153.764Z" transform="translate(-127.772 -76.902)" fill="#fff"/><path d="M236.486,153.215a3.491,3.491,0,0,0-.192-.8c-.1-.288-.064-.512.128-.512.417,0,.736,1.217.352,1.473C236.614,153.471,236.486,153.407,236.486,153.215Z" transform="translate(-118.657 -76.577)" fill="#fff"/><path d="M238.427,151.827a.889.889,0,0,1,.929-1.216c.416,0,.832,1.249.576,1.665C239.58,152.82,238.587,152.5,238.427,151.827Z" transform="translate(-119.735 -75.926)" fill="#fff"/><path d="M242.752,151.523a1.2,1.2,0,0,1,.448-1.793c.48-.128.736.032.992.608a1.593,1.593,0,0,1,.224.9C244.1,151.523,242.945,151.747,242.752,151.523Z" transform="translate(-121.819 -75.461)" fill="#fff"/><path d="M260.215,152.178c-.416-.416-.224-.672.736-1.024.8-.256,1.024-.224,1.184.16C262.424,152.082,260.823,152.818,260.215,152.178Z" transform="translate(-130.639 -76.116)" fill="#fff"/><path d="M266,150.926c-.32-.512.128-.96.96-.96.992,0,1.28.832.384,1.088C266.386,151.31,266.226,151.279,266,150.926Z" transform="translate(-133.608 -75.601)" fill="#fff"/><path d="M271.594,149.535c0-.48.576-.992.833-.736.224.224-.224,1.185-.544,1.185C271.722,149.983,271.594,149.791,271.594,149.535Z" transform="translate(-136.48 -74.978)" fill="#fff"/><path d="M235.694,148.183a1.235,1.235,0,0,1-.192-.864c0-.608.032-.608.32.1C236.142,148.183,236.078,148.567,235.694,148.183Z" transform="translate(-118.281 -74.042)" fill="#fff"/><path d="M236.955,147.309c-.288-1.121-.256-1.216.576-1.216.928,0,1.5,1.184.8,1.632C237.6,148.174,237.179,148.045,236.955,147.309Z" transform="translate(-118.934 -73.648)" fill="#fff"/><path d="M259.329,147.619a9.744,9.744,0,0,1,.352-1.185c.448-1.28,1.44-1.344,1.665-.1a3.1,3.1,0,0,1,.1.928A5.311,5.311,0,0,1,259.329,147.619Z" transform="translate(-130.297 -73.318)" fill="#fff"/><path d="M241.477,146.938a1.3,1.3,0,0,1-.224-.833c0-.512.1-.544.48-.224a1.415,1.415,0,0,1,.48.832C242.214,147.194,241.829,147.322,241.477,146.938Z" transform="translate(-121.184 -73.437)" fill="#fff"/><path d="M264.9,145.576c-.192-.992.224-1.441,1.216-1.313.48.064.64.352.64,1.056,0,.8-.128.993-.832,1.057C265.219,146.472,265.059,146.312,264.9,145.576Z" transform="translate(-133.081 -72.715)" fill="#fff"/><path d="M271.038,145.369c-.416-1.28-.288-1.665.576-1.761.769-.1.864,0,.864.833,0,.7-.192.992-.672,1.12C271.455,145.657,271.1,145.561,271.038,145.369Z" transform="translate(-136.084 -72.38)" fill="#fff"/><path d="M234.927,142.816c0-.608.064-.864.16-.544a3.291,3.291,0,0,1,0,1.12C234.991,143.68,234.927,143.424,234.927,142.816Z" transform="translate(-117.995 -71.652)" fill="#fff"/><path d="M236.311,142.4a1.379,1.379,0,0,1,.288-1.825c.736-.288,1.088.064,1.088,1.12,0,.672-.16.928-.576.928A1.256,1.256,0,0,1,236.311,142.4Z" transform="translate(-118.578 -70.816)" fill="#fff"/><path d="M240.278,141.4c-.128-.481-.192-.993-.064-1.088.32-.32.512.192.416,1.12l-.1.9Z" transform="translate(-120.625 -70.687)" fill="#fff"/><path d="M261.265,141.674c0-.352.16-.544.32-.448a.806.806,0,0,1,.32.672c0,.256-.128.448-.32.448C261.425,142.346,261.265,142.058,261.265,141.674Z" transform="translate(-131.273 -71.182)" fill="#fff"/><path d="M263.968,141.306a.99.99,0,0,1,.64-1.537c.929-.224.961-.224,1.249.7.192.576.064.7-.768.833A2.446,2.446,0,0,1,263.968,141.306Z" transform="translate(-132.535 -70.398)" fill="#fff"/><path d="M269.337,137.449c-.352-.32-.256-1.377.1-1.377a.3.3,0,0,0,.32-.32c0-.16-.192-.32-.448-.32-.544,0-.992-1.568-.544-2.017.576-.576,1.216.032,1.6,1.6.224.833.448,1.793.544,2.113.128.416,0,.544-.608.544A1.6,1.6,0,0,1,269.337,137.449Z" transform="translate(-134.959 -67.15)" fill="#fff"/><path d="M271.784,130.861c-.224-.96-.8-2.881-1.216-4.289-.64-2.049-.7-2.561-.352-2.785a1.626,1.626,0,0,1,.608-.288c.352,0,1.632,6.562,1.5,7.843l-.1,1.28Z" transform="translate(-135.678 -62.257)" fill="#fff"/><path d="M234.281,137.473c0-.512.064-.7.16-.384a2.422,2.422,0,0,1,0,.96C234.345,138.241,234.281,138.018,234.281,137.473Z" transform="translate(-117.669 -69.03)" fill="#fff"/><path d="M235.536,136.881c.128-1.12,1.057-1.377,1.313-.352.224.832.288.736-.672,1.056C235.5,137.778,235.44,137.713,235.536,136.881Z" transform="translate(-118.284 -68.502)" fill="#fff"/><path d="M262.751,135.927c-.256-.928.288-1.472,1.312-1.344a1.134,1.134,0,0,1,.417,1.888C263.679,136.984,262.943,136.76,262.751,135.927Z" transform="translate(-131.99 -67.836)" fill="#fff"/><path d="M239.317,135.951c0-.544.16-.833.512-.833.32,0,.448.224.384.7C240.053,136.847,239.317,136.943,239.317,135.951Z" transform="translate(-120.208 -68.115)" fill="#fff"/><path d="M233.565,133.743c0-.352.1-.448.192-.192a.649.649,0,0,1-.032.608C233.629,134.287,233.533,134.095,233.565,133.743Z" transform="translate(-117.305 -67.252)" fill="#fff"/><path d="M234.8,133.208c0-.48.192-.672.672-.672.448,0,.608.16.544.544C235.854,133.913,234.8,134.008,234.8,133.208Z" transform="translate(-117.93 -66.814)" fill="#fff"/><path d="M238.224,132.37c-.224-.576-.224-.576.736-.833.576-.192.7-.1.7.384C239.664,132.69,238.512,133.075,238.224,132.37Z" transform="translate(-119.595 -66.264)" fill="#fff"/><path d="M261.658,131.17c-.224-.8.192-1.216,1.313-1.216.544,0,.7.192.7.8,0,.48-.192.8-.448.8a3.2,3.2,0,0,0-.929.192C262.01,131.842,261.786,131.65,261.658,131.17Z" transform="translate(-131.441 -65.512)" fill="#fff"/><path d="M267.253,129.783c-.256-.64.128-1.12.864-1.12.448,0,.608.224.608.8s-.16.8-.64.8A.94.94,0,0,1,267.253,129.783Z" transform="translate(-134.251 -64.861)" fill="#fff"/><path d="M234.152,128.822c0-.672.736-1.44,1.057-1.088a1.609,1.609,0,0,1,.224.96c0,.512-.192.736-.64.736A.566.566,0,0,1,234.152,128.822Z" transform="translate(-117.604 -64.348)" fill="#fff"/><path d="M237.614,127.9c-.256-.8.032-1.152,1.12-1.313.992-.128,1.313.928.448,1.568C238.35,128.763,237.838,128.667,237.614,127.9Z" transform="translate(-119.305 -63.809)" fill="#fff"/><path d="M260.837,127c-.224-.192-.32-1.377-.128-1.377.032,0,.512-.128,1.088-.288.961-.288,1.024-.256.993.608-.032.64-.224.96-.7,1.088C261.221,127.254,261.093,127.254,260.837,127Z" transform="translate(-130.94 -63.101)" fill="#fff"/><path d="M258.683,127.106c0-.224.1-.32.224-.224a.384.384,0,0,1,0,.448C258.779,127.426,258.683,127.33,258.683,127.106Z" transform="translate(-129.971 -63.945)" fill="#fff"/><path d="M265.892,125.182c.1-.544,1.088-1.345,1.313-1.088a2.51,2.51,0,0,1,.352.9c.224.64.128.7-.768.7C266.02,125.695,265.8,125.566,265.892,125.182Z" transform="translate(-133.595 -62.533)" fill="#fff"/><path d="M234.8,125.269a1.968,1.968,0,0,1,.32-.736c.256-.384.32-.352.32.256,0,.384-.128.7-.32.7C234.958,125.493,234.8,125.4,234.8,125.269Z" transform="translate(-117.93 -62.652)" fill="#fff"/><path d="M236.734,123.957c0-.9.672-1.185,1.185-.512.32.48.32.64,0,.864C237.246,124.725,236.734,124.6,236.734,123.957Z" transform="translate(-118.906 -62.044)" fill="#fff"/><path d="M255.916,123.422c-.576-.64-.576-.672-.032-.48a3.254,3.254,0,0,0,.9.224c.16,0,.288.224.288.481C257.068,124.318,256.62,124.254,255.916,123.422Z" transform="translate(-128.356 -61.925)" fill="#fff"/><path d="M241.312,120.468c-1.377-1.056-1.568-3.425-.288-3.425.864,0,1.665,1.344,1.536,2.593C242.465,120.788,242.08,121.044,241.312,120.468Z" transform="translate(-120.635 -59.003)" fill="#fff"/><path d="M260.13,124.264a.386.386,0,0,1,.448,0c.1.128,0,.224-.224.224S260.034,124.392,260.13,124.264Z" transform="translate(-130.682 -62.607)" fill="#fff"/><path d="M269.861,121.039a5.054,5.054,0,0,0,.192-.64c0-.064.16-.128.32-.128.192,0,.32.288.32.641,0,.384-.224.64-.512.64C269.829,121.551,269.733,121.391,269.861,121.039Z" transform="translate(-135.579 -60.63)" fill="#fff"/><path d="M236.089,119.641c0-.736.672-1.953,1.056-1.953.672,0,.192,2.049-.512,2.177C236.345,119.929,236.089,119.833,236.089,119.641Z" transform="translate(-118.581 -59.328)" fill="#fff"/><path d="M249.638,120.346l-.961-.224.864-.224c.9-.256,1.537-.064,1.537.48C251.078,120.7,251.046,120.7,249.638,120.346Z" transform="translate(-124.927 -60.386)" fill="#fff"/><path d="M248.354,116.687c0-1.312.736-1.5,1.409-.352.448.769.48.928.064.928a3.643,3.643,0,0,0-.961.192C248.482,117.615,248.354,117.423,248.354,116.687Z" transform="translate(-124.764 -58.263)" fill="#fff"/><path d="M257.179,110.715a4.6,4.6,0,0,1-2.369-4.353c0-1.44.128-1.793.992-2.593a4.085,4.085,0,0,1,1.249-.928c.7,0,3.3,2.464,4.161,4l.992,1.761-1.056,1.12A3.274,3.274,0,0,1,257.179,110.715Z" transform="translate(-128.018 -51.844)" fill="#fff"/><path d="M246.049,116.717c-.1-.16-.032-.32.128-.32a.351.351,0,0,1,.352.32c0,.192-.064.32-.128.32C246.3,117.037,246.145,116.909,246.049,116.717Z" transform="translate(-123.579 -58.678)" fill="#fff"/><path d="M237.555,115.229a5,5,0,0,0,.192-.64c0-.064.288-.128.64-.128.8,0,.832.512.032.96C237.555,115.869,237.331,115.837,237.555,115.229Z" transform="translate(-119.279 -57.702)" fill="#fff"/><path d="M241.992,113.931c-.736-.1-.96-.512-.48-.8a5.739,5.739,0,0,1,1.28-.384c.864-.192,1.024-.128,1.024.416C243.817,113.835,243.144,114.123,241.992,113.931Z" transform="translate(-121.186 -56.788)" fill="#fff"/><path d="M247.709,112.476c0-.384.032-.608.1-.544.032.064.288.384.512.7.384.448.352.544-.1.544C247.9,113.181,247.709,112.924,247.709,112.476Z" transform="translate(-124.439 -56.421)" fill="#fff"/><path d="M238.671,112.035a.685.685,0,0,1,.32-.512c.192-.1.32.032.32.288,0,.288-.128.512-.32.512A.316.316,0,0,1,238.671,112.035Z" transform="translate(-119.882 -56.205)" fill="#fff"/><path d="M241.04,110.635c-.256-.64,2.017-1.344,2.4-.736.288.512,0,.736-1.216.993C241.487,111.051,241.167,110.987,241.04,110.635Z" transform="translate(-121.066 -55.284)" fill="#fff"/><path d="M247.122,109.212c0-.352.1-.448.192-.192a.65.65,0,0,1-.032.608C247.186,109.756,247.089,109.564,247.122,109.212Z" transform="translate(-124.139 -54.886)" fill="#fff"/><path d="M241.565,106.634c.384-.7,1.5-1.857,1.793-1.857.32,0,.352,1.5.032,1.7-.16.064-.672.224-1.152.352C241.532,106.986,241.372,106.954,241.565,106.634Z" transform="translate(-121.303 -52.819)" fill="#fff"/><path d="M246.624,105.427c-.352-.961-.192-1.377.576-1.5.8-.16.8-.16.288.832C246.848,106.035,246.88,106.035,246.624,105.427Z" transform="translate(-123.802 -52.349)" fill="#fff"/><path d="M246.418,101.5a6.9,6.9,0,0,1,1.44-.96,2.994,2.994,0,0,1,2.112-.64c.576.192.417.32-.992.992C247.41,101.594,246.418,101.849,246.418,101.5Z" transform="translate(-123.788 -50.34)" fill="#fff"/><path d="M276.179,39.166a33.859,33.859,0,0,0-4-4.482c-1.312-1.216-2.176-2.209-1.921-2.209a51.144,51.144,0,0,1,7.427,2.049c1.12.48,1.152.544.864,1.537a15.823,15.823,0,0,0-.288,3.2,5.337,5.337,0,0,1-.224,2.177A11.361,11.361,0,0,1,276.179,39.166Z" transform="translate(-135.783 -16.37)" fill="#fff"/><path d="M145.676,232.478c-1.313-.672-1.6-1.056-3.265-4.353-2.4-4.674-2.465-5.762-.192-3.105.9,1.056,2.977,3.233,4.61,4.833,2.785,2.689,2.913,2.881,1.985,2.753-.672-.1-.929-.032-.769.224C148.429,233.406,147.213,233.246,145.676,232.478Z" transform="translate(-70.422 -112.721)" fill="#fff"/><path d="M258.964,340.155a1.239,1.239,0,0,1,.661-1.623l.69-.293c6.705-2.869,10.554-4.593,13.169-7.329s2.928-6.756,3.419-9.2c.134-.671,1.655.508,2.326.643a1.24,1.24,0,0,1,.971,1.459,17.047,17.047,0,0,1-4.742,8.406c-2.552,2.652-7.494,5.5-14.871,8.6A1.24,1.24,0,0,1,258.964,340.155Z" transform="translate(-130.063 -162.078)" fill="#00160a" fill-rule="evenodd"/><path d="M270.293,101.367a1.24,1.24,0,0,1,1.7.431,38.444,38.444,0,0,1-49.163,54.526c-.621-.288-2.969-2.577-.6-1.645a67.059,67.059,0,0,0,16.79,3.02c19.855,0,33.9-16.416,33.9-36.271,0-6.556-2.622-12.375-3.053-18.361C269.812,102.372,269.7,101.717,270.293,101.367Z" transform="translate(-111.07 -51.012)" fill="#00160a" fill-rule="evenodd"/><path d="M72.327,289.48c.438-.526,1.22-1.589,1.746-1.15,2.158,1.8,4.461,3.88,6.924,4.282a32.832,32.832,0,0,0,9.119-.007,1.24,1.24,0,0,1,.3,2.461,35.234,35.234,0,0,1-9.817-.007,16.8,16.8,0,0,1-8.112-3.833A1.24,1.24,0,0,1,72.327,289.48Z" transform="translate(-35.878 -145.302)" fill="#00160a" fill-rule="evenodd"/><path d="M110.176,149.423a65.257,65.257,0,0,1-7.619-8.387,27.688,27.688,0,0,1-3.745-8.963c-.416-1.632-.832-3.1-.928-3.3a45.191,45.191,0,0,1-1.152-5.057c-.768-3.714-.606-4.91-1.28-9.351-.286-1.881-.544-3.377-.544-3.377l.832-1.069a11.474,11.474,0,0,0,1.312-2.3c1.025-2.756,8.547-11.4,8.771-11.172a17.829,17.829,0,0,1-.64,3.329c-.416,1.761-.928,4.418-1.152,5.922-.32,2.5-.448,2.785-1.441,3.617-1.249,1.056-3.617,4.449-3.617,5.154,0,.96,1.44.32,2.945-1.248l1.537-1.6v1.76a6.874,6.874,0,0,1-.64,3.041,4.62,4.62,0,0,0-.032,4.513,12.61,12.61,0,0,1,.96,4,66.473,66.473,0,0,0,6.722,22.631c.9,1.793,1.6,3.265,1.568,3.265A21.953,21.953,0,0,1,110.176,149.423Z" transform="translate(-47.406 -48.617)" fill="#fff"/><path d="M394.313,226.463l2.3,1.024c.478.22,5.751,2.754,12.083,5.8,10.21,4.906,23.178,11.137,23.257,11.137a6.49,6.49,0,0,0,.864-3.009,44.1,44.1,0,0,1,2.881-11.524,21,21,0,0,0,1.152-3.473,5.679,5.679,0,0,0-1.372-.627c-1.015-.409-2.5-1.008-4.134-1.791-8.067-3.873-23.848-11.78-25.8-12.964-1.921-1.12-2.3-1.216-2.3-.48,0,.96-1.953,5.41-3.457,7.81-.8,1.313-2.369,3.681-3.489,5.25Zm37.1,12.2c.918.532-.672,1.313-1.056,1.44a12.407,12.407,0,0,1-7.107-1.5c-1.14-.809-10.123-5.8-16.081-9.109-2.724-1.513-4.816-2.676-5.237-2.927a20.855,20.855,0,0,1-2.849-1.921c-.672-.864-.032-1.248,1.857-1.088C402.075,223.646,429.431,237.51,431.414,238.659Z" transform="translate(-198.346 -105.907)" fill="#fff" fill-rule="evenodd"/><path d="M344.643,210.1a5.343,5.343,0,0,1-2.3-1.665l-.96-1.185,3.393-3.361a71.532,71.532,0,0,0,12.516-16.961c1.152-2.081,4.577-10.472,4.994-11.4a4.873,4.873,0,0,1,2.5-2.625c1.632-.96,3.489-1.28,4.289-.736,1.537,1.024,1.537,4.258,0,9.827-1.7,6.114-3.969,10.5-8.675,16.806-.736.961-2.113,2.849-3.105,4.161-2.657,3.521-4.385,5.218-6.722,6.53C348.261,210.768,346.916,210.927,344.643,210.1Z" transform="translate(-171.66 -86.657)" fill="#fff"/><path d="M371.616,221.837l-.672-.672s11.158-14.175,13.157-19.4c1.525-3.986,2.423-5.116,3.635-5.116a1.722,1.722,0,0,1,1.487.539c.448.672.88,1.5.3,4.353-.96,4.61-2.433,7.651-6.85,14.213a33.839,33.839,0,0,1-2.913,3.745,14.7,14.7,0,0,1-6.13,2.817C372.513,222.477,372.193,222.413,371.616,221.837Z" transform="translate(-186.565 -99.136)" fill="#fff"/><path d="M410.085,213.785a12.861,12.861,0,0,0,1.105-3.231c0-.736.384-.64,2.3.48,1.953,1.185,17.734,9.091,25.8,12.964,3.009,1.441,5.506,2.257,5.506,2.417S409.4,215.351,410.085,213.785Z" transform="translate(-206.293 -105.907)" fill="#e7eaee" fill-rule="evenodd"/><path d="M166.481,139.921a58.062,58.062,0,0,1-13.189-13.349,55.168,55.168,0,0,1-8.451-20.615,56.81,56.81,0,0,1,.032-18.342,51.439,51.439,0,0,1,4.674-13.285,49.5,49.5,0,0,1,9.923-13.765c4.238-4.238-14.6,13.287-9.923,44.643C153.293,131.485,169.389,141.836,166.481,139.921Z" transform="translate(-72.213 -30.215)" fill="#e7eaee" fill-rule="evenodd"/></g></svg>