<svg xmlns="http://www.w3.org/2000/svg" width="300" height="157.983" viewBox="0 0 300 157.983"><path d="M211.966,155.89c-48.115,9.919-79.333-18.643-142.882-18.643C47.368,137.247-5.122,149.476,3,73.908c4.612-42.882,54.32-62.343,100.773-37.279,13.67,5.346,24.462,3.689,36.179-1.623s26.787-29.023,55.189-33.9C280.617-13.575,375.246,122.233,211.966,155.89Z" transform="translate(-1.199)" fill="#ebf2ff" fill-rule="evenodd"/><path d="M209.016,107.1c3.35,2.206,6.713,4.539,10.568,5.647s8.385.769,11.353-1.928c11.979-10.884,31.27-12.7,45.072-4.252s20.952,26.462,16.7,42.079-19.536,27.523-35.718,27.818c-8.384.153-16.138,4.16-24.15,6.638s-17.647,3.113-23.913-2.461c-6.753-6.008-5.982-18.386,1.464-23.509l-35.1,2.63c2.574,1.043,5.314,2.223,6.789,4.576s.8,6.2-1.889,6.9c-10.009,2.6-20.258-2.141-29.865-5.971s-21.184-6.642-29.752-.848c-19.307,13.058-44.815,10.89-67.81,7.083-5.517-.914-12.153-2.923-13.3-8.4A153.792,153.792,0,0,1,7.4,165.714c-2.622-.062-5.717-.475-6.942-2.793-1.588-3,1.262-6.413,4.038-8.374a51.12,51.12,0,0,1,29.2-9.295c2.956,0,4.929-3.093,5.682-5.951s.963-6.039,2.883-8.287a23.376,23.376,0,0,0-18.446,5.315c-.929.8-2.5,0-2.887-1.164a5.573,5.573,0,0,1,.424-3.578c2.309-6.459,5.2-13.021,10.453-17.437s13.449-6.009,18.981-1.955a60.722,60.722,0,0,0,8.841,4.9q6.4-.967,9.51-1.54c6.29-1.156,12.122-4.012,17.823-6.909,19.867-10.094,40.237-21.332,62.512-21.966C170.782,86.07,191.211,95.374,209.016,107.1Zm22.544,17.5,2,5.034a1.566,1.566,0,0,0,.41.672,1.814,1.814,0,0,0,.913.276c2.443.352,4.358,2.207,6.09,3.966l6.654,6.761c.664.675,1.769-.055,2.405-.757a18.965,18.965,0,0,0,3.713-5.161,6.426,6.426,0,0,0-.316-6.109A7.508,7.508,0,0,0,250.44,127a17.819,17.819,0,0,0-6.009-1.661c-2.028-.19-4.071-.03-6.108-.045A35.638,35.638,0,0,1,231.559,124.6Z" transform="translate(0 -48.13)" fill="#fff" fill-rule="evenodd"/><path d="M48.459,250.484a153.8,153.8,0,0,1-32.067,2.609c-3.091-4.5,30.358-12.8,31.571-7.333C48.921,250.087,48.965,252.9,48.459,250.484Z" transform="translate(-8.993 -135.509)" fill="#e7eaee" fill-rule="evenodd"/><path d="M386.752,220.659a38.3,38.3,0,0,1,10.32-.71c2.53-1.3,14.654-.279,21.892,1.139,4.645.91,16.419,1.515,20.694,3.7,7.422,3.786,7.592,6.126,6.475,6.627a26.39,26.39,0,0,1-9.048,2.163c-3.7.067-11.138-3.351-19.3-5.493-3.645-.957-6.323-1.769-8.434-2.557l.345-.151c-4.565,2.061-9.288,2.389-14,3.9l-35.1,2.63c2.574,1.043-36.148-13.055-24.965-15.112a16.442,16.442,0,0,1,2.273-.238C348.373,216.119,369.182,222.537,386.752,220.659Z" transform="translate(-185.299 -120.278)" fill="#e7eaee" fill-rule="evenodd"/><path d="M209.945,183.288a.679.679,0,0,1-.18.793,1.571,1.571,0,0,1-.8.338,5.123,5.123,0,0,1-5.38-2.686,1.222,1.222,0,0,1-.167-.689.5.5,0,0,1,.472-.453,10.847,10.847,0,0,0,2.008,1.869,3.65,3.65,0,0,0,2.606.643C209.02,183.009,209.691,182.834,209.945,183.288Z" transform="translate(-112.99 -100.311)" fill="#00160a" fill-rule="evenodd"/><path d="M221.222,244.777c.03-.6.776-.845,1.372-.866,2.67-.1,5.157,1.21,7.623,2.238s5.338,1.787,7.747.63a2.581,2.581,0,0,1,1.575-.455,5.28,5.28,0,0,1-5.038,2.444,17.174,17.174,0,0,1-5.636-1.713,13.034,13.034,0,0,0-5.7-1.394,3.692,3.692,0,0,1-1.208-.03A.932.932,0,0,1,221.222,244.777Z" transform="translate(-122.88 -135.48)" fill="#00160a" fill-rule="evenodd"/><path d="M224.387,253.866c-1.842-.538-4-.269-5.508-1.449a.817.817,0,0,1-.375-.568c-.01-.329.344-.569.673-.577a2.625,2.625,0,0,1,.946.255,23.934,23.934,0,0,0,3.542.6,27.937,27.937,0,0,1,4.979,2.058c1.661.693,3.654,1.048,5.2.127.624-.371,1.444-.926,1.962-.416a6.8,6.8,0,0,1-6.972,1.955C227.282,255.364,225.947,254.322,224.387,253.866Z" transform="translate(-121.371 -139.572)" fill="#00160a" fill-rule="evenodd"/><path d="M112.033,207.636a1.38,1.38,0,0,1-.1-1.37,3.3,3.3,0,0,1,.894-1.116c1.7-1.52,4.058-2.549,6.267-1.978a9.033,9.033,0,0,1,4.126,2.927c.5.538,1.009,1.31.637,1.94-.4.674-1.394.532-2.148.327a15.022,15.022,0,0,0-7.194-.473C113.652,208.086,112.575,208.33,112.033,207.636Z" transform="translate(-62.099 -112.765)" fill="#00160a" fill-rule="evenodd"/><path d="M187.489,264.664a.659.659,0,0,1,.009.992,1.9,1.9,0,0,1-1.049.409l-6.324,1.084a1.753,1.753,0,0,1-1.3-.114c-.367-.254-.378-.961.059-1.053q3.964-.837,7.984-1.375A.95.95,0,0,1,187.489,264.664Z" transform="translate(-99.18 -146.966)" fill="#00160a" fill-rule="evenodd"/><path d="M185.243,209.356a.863.863,0,0,1-1.038-.766,1.97,1.97,0,0,1,.485-1.363,6.657,6.657,0,0,1,6.087-2.514,7.8,7.8,0,0,1,5.558,3.7,1.443,1.443,0,0,1,.287,1,1.049,1.049,0,0,1-.8.743,2.786,2.786,0,0,1-1.145-.026c-1.577-.272-3.114-.745-4.693-1.01A9.256,9.256,0,0,0,185.243,209.356Z" transform="translate(-102.314 -113.682)" fill="#00160a" fill-rule="evenodd"/><path d="M119.47,184.422c.18-.526.939-.4,1.484-.288,1.7.337,3.358-.609,4.831-1.519.2-.121.458.109.454.34a.924.924,0,0,1-.333.588c-1.468,1.484-3.664,2.5-5.649,1.853C119.813,185.253,119.32,184.864,119.47,184.422Z" transform="translate(-66.346 -101.418)" fill="#00160a" fill-rule="evenodd"/><path d="M229.861,172.609a1.16,1.16,0,0,1-.762-1.377,3.549,3.549,0,0,1,.863-1.5,31.194,31.194,0,0,0,3.647-5.494c.857-1.689,1.513-3.48,2.476-5.111a15.846,15.846,0,0,1,13.521-7.63,20.538,20.538,0,0,0-7.339-3.082,36.072,36.072,0,0,0-24.122,2.834c-1.168.584-2.307,1.234-3.525,1.7a2.73,2.73,0,0,1-1.758.219,1.091,1.091,0,0,1-.76-1.395,1.617,1.617,0,0,1,.8-.639,73.945,73.945,0,0,1,9.645-4.2,37.241,37.241,0,0,1,23.159.069c2.5.833,5.111,2.128,6.193,4.53.166.368.181.957-.218,1.018-4.292.647-8.66,2.132-11.623,5.3-3.837,4.109-4.766,10.418-8.928,14.2A1.583,1.583,0,0,1,229.861,172.609Z" transform="translate(-117.772 -80.612)" fill="#00160a" fill-rule="evenodd"/><path d="M175.292,159.761c2.574,1.043,5.314,2.223,6.789,4.576s.8,6.2-1.889,6.9c-10.009,2.6-20.258-2.141-29.865-5.971s-21.184-6.642-29.752-.848c-19.307,13.058-44.815,10.89-67.81,7.083-5.517-.914-12.153-2.923-13.3-8.4A153.792,153.792,0,0,1,7.4,165.714c-2.622-.062-5.717-.475-6.942-2.793-1.588-3,1.262-6.413,4.038-8.374a51.12,51.12,0,0,1,29.2-9.295c2.956,0,4.929-3.093,5.682-5.951s.963-6.039,2.883-8.287a23.376,23.376,0,0,0-18.446,5.315c-.929.8-2.5,0-2.887-1.164a5.573,5.573,0,0,1,.424-3.578c2.309-6.459,5.2-13.021,10.453-17.437s11.057-6.092,18.945-2.5a84.02,84.02,0,0,1,8.851,5.014q6.357-.526,9.537-1.111c6.29-1.156,12.122-4.012,17.823-6.909,19.867-10.094,40.237-21.332,62.512-21.966,21.309-.607,41.738,8.7,59.543,20.422,3.35,2.206,6.713,4.539,10.568,5.647s8.385.769,11.353-1.928c11.979-10.884,31.27-12.7,45.072-4.252s20.952,26.462,16.7,42.079-19.536,27.523-35.718,27.818c-8.384.153-16.138,4.16-24.15,6.638s-17.647,3.113-23.913-2.461c-6.753-6.008-5.982-18.386,1.464-23.509Zm67.731-21.587a27.186,27.186,0,0,0-22.994-7.58,27.7,27.7,0,0,1,12.452-.91c-11.756-16.977-30.728-27.581-50.066-34.825-9.4-3.521-19.184-6.414-29.217-6.636-13.061-.288-25.79,3.957-37.854,8.97C102.1,102.695,89.3,109.176,76.5,115.651A13.094,13.094,0,0,1,87,120.2a39.689,39.689,0,0,0-33.59,1.8,4.561,4.561,0,0,1,3.661-4.247,20.436,20.436,0,0,0-21.782-3.032,20.436,20.436,0,0,0-11.33,18.85,22.785,22.785,0,0,1,21.69-3.846,44.917,44.917,0,0,0-6.336,23.991,6.754,6.754,0,0,1,6.905,1.11l-6.2.667.262,2.831,6.565-.968a9.377,9.377,0,0,1-5.513,3.074c-.266,2.7,1.605,5.239,3.953,6.591s5.105,1.754,7.787,2.132l20.057,2.825c-1.551-1.748-1.8-4.564-2.817-6.511-1.311-2.521-3.2-3.548-4.153-6.893-.327-1.154-1.082-2.779-.026-3.513a2.7,2.7,0,0,1,1.562-.321l6.62-.007a4.42,4.42,0,0,1,2.089.34c1.91,1.01,1.307,3.995-.12,5.618s-3.466,2.919-3.953,5.024c-.5,2.163.955,4.4,2.889,5.494a13.98,13.98,0,0,0,6.452,1.351,87.355,87.355,0,0,0,14-.647c11.683-1.487,24.13-6.247,29.552-16.7a10.565,10.565,0,0,1-3.763,6.8,38.544,38.544,0,0,1,26.64.1c8.051,3.032,15.689,8.888,24.227,7.837-.366-.3-.508-.809-.874-1.106-1-.808-2.216-1.4-3.212-2.207l9.133,3.341c-.346-.506,0-1.017-.644-1.792s-2.05-2.156-2.879-3.37a9.426,9.426,0,0,1,5.507,4.361l2.955-.723a45.686,45.686,0,0,0-19.725-15.17c-3.789-1.5-8.486-3.305-8.96-7.354,8.516,8.224,20.72,11.732,32.556,11.983s23.515-2.439,35.048-5.112a23.235,23.235,0,0,1-6.971-5.406A106.429,106.429,0,0,0,256.5,160.5l-2.516-4.265a4.337,4.337,0,0,1,3.976,3.228l2.76-1.086-3.838-3.763a3.948,3.948,0,0,1,4.641,3.19,4.586,4.586,0,0,0,2-2.053l-4.59-3.475a10.265,10.265,0,0,1,6.474,2.158c-2.161-5.255-9.475-5.38-14.334-8.327C247.838,144.142,245.689,140.854,243.024,138.173Zm-11-15.1c2.89.7,5.916.158,8.889.167a26.188,26.188,0,0,1,9.037,1.7A10.28,10.28,0,0,1,254.673,128c1.836,2.391,1.676,5.859.4,8.588s-3.5,4.885-5.668,6.978l13.667,6.1c1.287.574,2.679,1.248,3.267,2.529,1.017,2.215-.958,4.644-2.987,5.994a22.087,22.087,0,0,1-21.729,1.3c-4.355-2.2-9.183-3.244-13.952-4.271-2.6-.561-5.315-1.121-7.9-.487-1.835.45-3.566,1.494-5.455,1.43-1.688-.057-3,1.4-3.989,2.769-3.254,4.5-5.938,10.26-4.032,15.48,1.31,3.589,4.63,6.175,8.248,7.4a29.462,29.462,0,0,0,11.342,1.019c4.772-.3,9.634-1.061,13.825-3.364,2.729-1.5,5.171-3.649,8.189-4.414,3.622-.918,7.437.314,11.163.042a25.81,25.81,0,0,0,8.492-2.591c6.637-2.962,13.274-6.459,17.981-11.995,7.019-8.256,8.689-20.354,5.335-30.659s-11.279-18.777-20.765-24.017a34.311,34.311,0,0,0-8.245-3.384,27.085,27.085,0,0,0-20.6,3.423c-3.123,1.952-5.836,4.494-8.9,6.542s-6.657,3.627-10.322,3.269C224.855,118.806,227.934,122.083,232.025,123.075ZM13.557,151.3c-4.252,1.658-8.506,3.857-11.2,7.54a4.74,4.74,0,0,1,4.1-.2L3.61,160.045a4.059,4.059,0,0,0-1.449,1,1.389,1.389,0,0,0-.145,1.643.853.853,0,0,0,1.433-.137,4.355,4.355,0,0,1,5.17-2.807c-1.569.894-3.281,1.97-3.715,3.723.235.789,1.391.919,2.07.454a5.238,5.238,0,0,0,1.409-2,2.706,2.706,0,0,1,1.773-1.586.554.554,0,0,1,.488.114c.208.22.036.58-.16.811A5.476,5.476,0,0,0,9.255,162.9c-.218.651.172,1.561.857,1.519q14.431-.882,28.79-2.651c.346-.749-.7-1.357-1.522-1.468a14.832,14.832,0,0,0-6.214.484,3.6,3.6,0,0,1,2.882-2.271,10.591,10.591,0,0,1,3.831.244,6.847,6.847,0,0,0-.485-2.6,10,10,0,0,1-5.632-1.9,5.122,5.122,0,0,1,4.21.309c.607.335,1.059-.646,1.069-1.339l.1-6.759A71.542,71.542,0,0,0,13.557,151.3ZM234.881,130.58c2.443.352,4.358,2.207,6.09,3.966l6.654,6.761c.664.675,1.769-.055,2.405-.757a18.965,18.965,0,0,0,3.713-5.161,6.426,6.426,0,0,0-.316-6.109A7.508,7.508,0,0,0,250.44,127a17.819,17.819,0,0,0-6.009-1.661c-2.028-.19-4.071-.03-6.108-.045a35.638,35.638,0,0,1-6.764-.7l2,5.034a1.566,1.566,0,0,0,.41.672A1.814,1.814,0,0,0,234.881,130.58Z" transform="translate(0 -48.13)" fill="#00160a" fill-rule="evenodd"/></svg>