<svg xmlns="http://www.w3.org/2000/svg" xmlns:xlink="http://www.w3.org/1999/xlink" width="348" height="350" viewBox="0 0 348 350"><defs><clipPath id="a"><rect width="348" height="350" transform="translate(-0.472 -0.549)" fill="#fff"/></clipPath></defs><g transform="translate(0.472 0.549)" clip-path="url(#a)"><path d="M350.476,1805.669c9.588-1.186,16.528-7.565,15.723-17.187l-17.219-208.028a26.214,26.214,0,1,0-51.991,6.433L332.674,1792.9C334.241,1802.43,340.888,1806.854,350.476,1805.669Z" transform="translate(-50.639 -1010.875)" fill="#ffc999" fill-rule="evenodd"/><path d="M556.324,1798a17.993,17.993,0,0,1-18.385-16.848l-13.066-206.168a26.213,26.213,0,1,1,52.372-1.23l-3.35,206.552A17.991,17.991,0,0,1,556.324,1798Z" transform="translate(-373.932 -1006.15)" fill="#ffc999" fill-rule="evenodd"/><path d="M554.089,1155.881a31.221,31.221,0,0,0-30.463,32.686l8.918,188.316a26.748,26.748,0,0,0,53.466-1.26l.048-188.523A31.225,31.225,0,0,0,554.089,1155.881Z" transform="translate(-382.137 -807.468)" fill="#ffc999" fill-rule="evenodd"/><path d="M357.637,1168.192a31.23,31.23,0,0,1,34.917,27.888l18.712,187.593a26.75,26.75,0,0,1-53.079,6.571l-27.611-186.49A31.227,31.227,0,0,1,357.637,1168.192Z" transform="translate(-112.311 -813.602)" fill="#ffc999" fill-rule="evenodd"/><path d="M402.45,504.557s-22.654-7.074-32.706,16.455c-23.781,4.576-21.575,30.065-21.575,30.065s-14.369,17.448,6.476,30.9c-1.363,20.014,21.636,20.014,21.636,20.014s2.941,16.1,20.987,12.551c16.1,17.237,51.211,19.911,66.312,4.4,21.484,22.108,67.493,6.675,64.827-10.8,28.768,2.832,47.417-25.171,34.828-53.5,16.072-18.246,3.372-32.565,3.372-32.565s11.5-45.979-19.787-57.42c-12.575-27.76-51.681-13.322-51.681-13.322s-22.979-8.733-34.8,10.527c-27.215-.165-28.3,14.631-32.308,26.557C404.045,485.961,402.45,504.557,402.45,504.557Z" transform="translate(-278.733 -447.788)" fill="#039" fill-rule="evenodd"/><path d="M424.4,523.116c18.1,6.246,26.014-6.937,26.014-6.937s10.86-18.611,10.877-6.114c.011,6.641,11.4-.349,14.9,7.288,2.354,5.139-6.348,9.884,1.734,23.878,4.683,8.1-19.232,10.15-7.158,25.641,0,0-12.674,14.527,3.814,22.562l-1.192,19.217a18.965,18.965,0,1,1-37.556-4.736l4.4-22.961C413.313,576.651,417.916,539.469,424.4,523.116Z" transform="translate(-223.341 -477.327)" fill="#ffc999" fill-rule="evenodd"/><path d="M890.862,630.089l-13.654-48.236s-22.362-39.138-30.437-36.731c-7.5,3.282,9.453,14.486,12.815,25.544-7.139-.511-3.9,10.1-3.9,10.1s-5.683-.206-4.154,8.443c-5.277,3.122-1.047,13.049-1.047,13.049s10.6,26.147,22.349,43.588C872.837,645.851,892.325,660.9,890.862,630.089Z" transform="translate(-845.152 -497.268)" fill="#ffc999" fill-rule="evenodd"/><path d="M867.68,638.062s-2.037-16.543-3.56-24.969,2.037-23.648-4.111-19.616c-4.133,2.713-3.414,11.767-3.264,18.444s-10.639,22.5-2.6,33.453C859.574,652.777,868.137,653.748,867.68,638.062Z" transform="translate(-825.004 -521.538)" fill="#ffc999" fill-rule="evenodd"/><path d="M684.21,709.024a12.574,12.574,0,0,1,17.1,3.044l76.656,104.67a21.413,21.413,0,1,1-35.814,23.468L680.108,725.47A12.565,12.565,0,0,1,684.21,709.024Z" transform="translate(-654.07 -579.486)" fill="#ffc999" fill-rule="evenodd"/><path d="M481.1,591.658a1.21,1.21,0,0,0-1.689-.27l-.153.1c-.1.065-.24.152-.414.253a14.818,14.818,0,0,1-1.734.857,15.419,15.419,0,0,1-10.01.757,1.209,1.209,0,1,0-.61,2.339,17.8,17.8,0,0,0,11.554-.866,14.539,14.539,0,0,0,2.784-1.485A1.209,1.209,0,0,0,481.1,591.658Z" transform="translate(-248.863 -520.7)" fill="#f5222d"/><path d="M438.129,553.28a1.164,1.164,0,0,0-1.332.966,7.591,7.591,0,1,0,14.953,2.39,1.164,1.164,0,0,0-2.3-.367,5.271,5.271,0,1,1-10.356-1.657A1.164,1.164,0,0,0,438.129,553.28Z" transform="translate(-205.07 -501.457)" fill="#2e354d"/><path d="M499.913,545.462a1.1,1.1,0,0,0-1.265.915c-.7,4.361,1.711,8.451,5.509,9.058s7.362-2.525,8.061-6.886a1.1,1.1,0,0,0-2.18-.35c-.519,3.239-3.04,5.454-5.532,5.056s-4.2-3.29-3.676-6.529A1.1,1.1,0,0,0,499.913,545.462Z" transform="translate(-295.975 -497.488)" fill="#2e354d"/><path d="M443.039,528.18a20.672,20.672,0,0,0-11.6-.8l-.6.13c-.56.129-.987.251-1.261.344a1.164,1.164,0,1,0,.747,2.2l.256-.08c.3-.089.752-.2,1.32-.316a18.417,18.417,0,0,1,10.3.686,14.442,14.442,0,0,1,4.309,2.6,1.164,1.164,0,0,0,1.53-1.754A16.771,16.771,0,0,0,443.039,528.18Z" transform="translate(-197.851 -488.074)" fill="#2e354d"/><path d="M552.366,846.756a21.807,21.807,0,0,1-5.418-30.37l67.163-96.3a21.818,21.818,0,0,1,35.8,24.952l-67.165,96.3A21.823,21.823,0,0,1,552.366,846.756Z" transform="translate(-459.476 -581.427)" fill="#ffc999" fill-rule="evenodd"/><path d="M613.626,779.873a.689.689,0,0,0-.879.076l-.08.1-28.072,40.25-34.964-24.932a.69.69,0,0,0-.88.066l-.081.094a.688.688,0,0,0,.066.88l.094.081,35.53,25.337a.689.689,0,0,0,.885-.071l.08-.1L613.8,780.832A.689.689,0,0,0,613.626,779.873Z" transform="translate(-422.281 -616.468)"/><path d="M578.6,785.886l28.473-40.825a21.818,21.818,0,0,0-35.8-24.949l-28.2,40.434Z" transform="translate(-416.635 -581.452)" fill="#fff" fill-rule="evenodd"/><path d="M359.029,742.7c-4.662,10.154-13.3,27.634-14.371,39.182-1.742,18.723,10.451,32.654,10.451,32.654s.123-5.505,1.307,43c55.855,9.8,91.467-.615,91.467-.615l-1.088-12.86,9.07-30.395s5.512-11.32,16.835-36.571c7.872-17.555,7.326-39.318,6.259-50.955-.457-4.985,1.912-15.393-3.036-16.171-16.811-2.643-28.478-4.066-28.478-4.066l-2.046-6.285a3.864,3.864,0,0,0-3.825-3.315H398.35a3.86,3.86,0,0,0-3.741,2.9l-3.03,6.7-22.78.813c-3.99.782-7.44,13.279-7.856,17.321Z" transform="translate(-187.493 -574.094)" fill="#fff" fill-rule="evenodd"/><path d="M465.144,719.1a.9.9,0,0,0-1.169.039l-.1.108-39.026,49.19L409.7,722.547a.9.9,0,0,0-1-.61l-.143.035a.9.9,0,0,0-.61,1l.035.143,15.669,47.477a.9.9,0,0,0,1.471.382l.1-.1,40.069-50.5A.9.9,0,0,0,465.144,719.1Z" transform="translate(-204.644 -585.568)" fill="#ccd7ee"/><path d="M464.73,823.449c-4.1,6.911-2.252,15.579,4.126,19.362s14.874,1.241,18.972-5.67,2.254-15.582-4.126-19.362S468.83,816.538,464.73,823.449Z" transform="translate(-256.046 -634.891)" fill="#ccd7ee" fill-rule="evenodd"/><path d="M467.722,823.38c-4.1,6.911-2.252,15.579,4.126,19.36s14.874,1.243,18.975-5.67,2.252-15.58-4.129-19.36S471.822,816.469,467.722,823.38Z" transform="translate(-260.511 -634.855)" fill="#ebf2ff" fill-rule="evenodd"/><path d="M473.43,827.539c-3.184,5.366-1.749,12.1,3.205,15.031s11.547.966,14.729-4.4,1.751-12.1-3.2-15.031S476.613,822.172,473.43,827.539Z" transform="translate(-263.615 -637.81)" fill="#0559ff" fill-rule="evenodd"/><path d="M479.005,755.525a.691.691,0,0,0-.67.709l.061,2.74.009.523c.094,5.458.1,11.225-.025,16.623l-.041,1.553A111.161,111.161,0,0,1,477.3,791.4c-.6,3.59-2.9,9.689-6.464,17.549q-.935,2.061-1.964,4.238c-1.888,3.993-3.911,8.072-5.934,12.017l-1.022,1.981-1.644,3.137-.076.156-14.648,43.66-.032.286,1.247,12.671-1.084.212c-.309.059-.637.118-.985.182l-.536.1c-2.621.463-5.658.925-9.075,1.358a257.138,257.138,0,0,1-76.935-1.885l-1.108-.2-.094-3.524c-.069-2.308-.174-5.478-.308-9.39l-.536-15.116-.466-12.72-.086-.308-.334-.62-.534-1.024q-.227-.441-.47-.925l-.246-.5c-1.192-2.407-2.384-5.019-3.5-7.74a83.527,83.527,0,0,1-3.751-11.171,38.835,38.835,0,0,1-1.311-9.258,47.052,47.052,0,0,1,2.939-17.477,78.286,78.286,0,0,1,4.208-9.069l.937-1.745c1.265-2.321,3.71-6.728,5.125-9.276l1.077-1.941.085-.306.436-11.537a.689.689,0,0,0-1.362-.175l-.016.124-.428,11.372-5.647,10.2-1.039,1.91-.763,1.446a76.307,76.307,0,0,0-3.9,8.511,48.411,48.411,0,0,0-3.027,17.961,40.147,40.147,0,0,0,1.353,9.593,84.792,84.792,0,0,0,3.812,11.357c.964,2.36,1.987,4.637,3.019,6.773l.517,1.056q.379.767.725,1.439l.809,1.536L355.4,877.89c.166,4.966.262,8.225.273,9.361v.187a.688.688,0,0,0,.564.679,258.471,258.471,0,0,0,79.026,2.2c3.1-.394,5.884-.812,8.336-1.23l.805-.143q.834-.147,1.539-.28l1.721-.345a.685.685,0,0,0,.538-.61v-.128l-1.291-13.144,14.555-43.412.746-1.409c.592-1.127,1.252-2.4,1.962-3.781,2.029-3.958,4.059-8.049,5.953-12.057l1.01-2.157q.247-.532.488-1.058l.476-1.043c3.614-7.969,5.943-14.144,6.568-17.892a121.121,121.121,0,0,0,1.094-15.478c.11-4.644.119-9.558.06-14.315l-.054-3.392-.051-2.25A.691.691,0,0,0,479.005,755.525Z" transform="translate(-187.558 -604.167)"/><path d="M303.292,868.191l.622-.241a21.482,21.482,0,0,0,12.254-27.8L275.2,734.676A21.49,21.49,0,0,0,247.4,722.428l-.622.241a21.478,21.478,0,0,0-12.252,27.8l40.961,105.472A21.491,21.491,0,0,0,303.292,868.191Z" transform="translate(29.286 -586.618)" fill="#ffc999" fill-rule="evenodd"/><path d="M405.917,1041.366c19.625,1.536,77.5,123.977,95.091,168.309-2.343,8.928-27.946,26.209-27.946,26.209s1.53,7.107,2.475,11.375c-16.746,13.771-49.134,21.248-49.134,21.248l-.072,6.108c-51.782,23.837-121.124.994-121.124.994s-1.293-1.324-.366-6.118c-23.51-.271-73.854-30.088-73.854-30.088l7.156-14.756-20.706-21.184s55.915-102.828,73.125-131.592c15.11-25.249,29.282-32.519,29.282-32.519S371.1,1038.639,405.917,1041.366Z" transform="translate(-146.402 -748.255)" fill="#2f4858" fill-rule="evenodd"/><path d="M407.1,1029.987l1.478-11.217s44.29.266,87.729-1.91c1.1,4.981,2.358,13.939,2.358,13.939C495.009,1027.8,455.552,1036.557,407.1,1029.987Z" transform="translate(-237.403 -736.876)" fill-rule="evenodd"/><path d="M675.569,1087.867a.874.874,0,0,0-1.095.276l-.072.123-85.457,174.52a.875.875,0,0,0,.246,1.073l.537.4.874.645.68.487c1.706,1.21,3.715,2.559,6.012,4.011a190.9,190.9,0,0,0,22.585,12.147,198.346,198.346,0,0,0,42.2,13.86.872.872,0,0,0,.353-1.708,196.621,196.621,0,0,1-41.831-13.742,188.958,188.958,0,0,1-22.378-12.034c-2.018-1.275-3.809-2.466-5.362-3.554l-.914-.65-1.12-.817,85.14-173.875a.87.87,0,0,0-.278-1.093Z" transform="translate(-504.261 -772.889)" fill="#fff"/><path d="M267.353,1161.017a.872.872,0,0,0-1.671.478l.039.138,55.849,147.691-.917.571-1.111.669c-.967.571-2.034,1.186-3.2,1.836a167.745,167.745,0,0,1-15.528,7.619,144.807,144.807,0,0,1-28.129,8.958.871.871,0,1,0,.346,1.708,146.133,146.133,0,0,0,28.471-9.066,167.707,167.707,0,0,0,15.69-7.7c1.413-.788,2.688-1.526,3.815-2.205l1.17-.714.934-.591a.877.877,0,0,0,.375-.91l-.038-.128Z" transform="translate(7.359 -809.794)" fill="#fff"/><path d="M447.632,1050.229l-.141.02a.869.869,0,0,0-.7.886l.024.177,3.341,16.862c1.151,5.837,2.378,12.088,3.667,18.688l.71,3.637c5.381,27.592,10.762,55.686,15.833,82.855l1.165,6.251q.929,5.005,1.834,9.908l3.228,17.62c4.758,26.17,8.794,49.312,11.957,68.734l.744,4.592-1.193.394q-1.894.62-3.812,1.186l-1.923.561c-31.057,8.791-64.248,8.289-95.594,2.166-4.974-.974-9.46-2.013-13.384-3.056l-1.134-.305q-.819-.221-1.543-.428l-1.415-.418,38.888-194.848a.871.871,0,0,0-.548-.984l-.136-.039a.872.872,0,0,0-.987.546l-.039.138-39.043,195.62a.872.872,0,0,0,.587,1l1.279.389.935.276c.652.182,1.361.379,2.127.586l.584.157c3.96,1.048,8.484,2.1,13.5,3.081,31.592,6.172,65.045,6.674,96.4-2.2q3.9-1.1,7.711-2.4a.869.869,0,0,0,.58-.96l-1.082-6.689c-3.131-19.151-7.091-41.836-11.74-67.405l-2.034-11.138q-1.48-8.054-3.03-16.395c-5.023-27.026-10.379-55.081-15.758-82.747l-4.661-23.841-4.308-21.77A.872.872,0,0,0,447.632,1050.229Z" transform="translate(-210.353 -753.821)" fill="#fff"/><path d="M506.76,1057.058a.872.872,0,0,0-.9.679l-.02.143-9.176,162.693a.872.872,0,0,0,1.722.236l.02-.138,9.176-162.693A.873.873,0,0,0,506.76,1057.058Z" transform="translate(-290.408 -757.288)" fill="#fff"/><path d="M580.049,1048.56a.874.874,0,0,0-1.038.443l-.053.133-34.453,110.885a.872.872,0,0,0,1.613.65l.053-.133,34.453-110.885A.874.874,0,0,0,580.049,1048.56Z" transform="translate(-387.017 -752.954)" fill="#fff"/><path d="M497.707,1043.409c-19.549.911-38.526,1.324-55.42,1.319l-5.763-.015c-5.954-.034-11.213-.128-15.227-.251l-1.91-.064c-.583-.025-1.109-.045-1.573-.069l-.934-.049c-.312-.02-.568-.04-.763-.059l-.234-.025-.1-.039a.858.858,0,0,0-.4-.025l-.138.034-.111.015c-.21.039-.234.172-.413,1.2l.358.374c.109.1.14.1.219.108a.952.952,0,0,0,.226.049l.143.02c.121.015.274.029.46.044l.653.044c.838.054,2.018.108,3.465.157l3,.089c3.944.1,8.815.172,14.218.2l.959,0c17.868.069,38.287-.33,59.37-1.319a.87.87,0,1,0-.082-1.738Z" transform="translate(-241.112 -750.357)" fill="#2e354d"/><path d="M305.865,787.965l-18.019-46.394a21.82,21.82,0,0,1,40.684-15.79l17.845,45.955Z" transform="translate(-25.699 -581.999)" fill="#fff" fill-rule="evenodd"/><path d="M433.335,725.386a.689.689,0,0,0-.124,1.367l.124.011H470.3a.689.689,0,0,0,.124-1.367l-.124-.011Z" transform="translate(-222.311 -588.862)"/><path d="M287.5,771.718a.689.689,0,0,0-1.319.379l.034.12,18.019,46.392a.69.69,0,0,0,.779.426l.12-.036,40.511-16.23a.689.689,0,0,0-.394-1.315l-.119.036L305.262,817.46Z" transform="translate(-25.293 -612.167)"/><path d="M624.37,923.576l-35.74-97.43a3.982,3.982,0,0,0-3.851-2.607l-88.609,2.528a3.981,3.981,0,0,0-3.6,5.425l37.019,94.746a3.97,3.97,0,0,0,3.7,2.53l87.334.157A3.98,3.98,0,0,0,624.37,923.576Z" transform="translate(-405.295 -638.705)" fill="#2f4858" fill-rule="evenodd"/><path d="M633.971,922.717l-35.119-95.735a4.817,4.817,0,0,0-4.661-3.157l-89.705,2.561a2.779,2.779,0,0,0-2.512,3.791L539.5,926.236a4.411,4.411,0,0,0,4.1,2.805l85.841.148A4.814,4.814,0,0,0,633.971,922.717Z" transform="translate(-419.615 -638.849)" fill="#039" fill-rule="evenodd"/><path d="M586.316,842.624c-.955,1.157-.513,3.1.991,4.34s3.494,1.309,4.449.152.513-3.1-.988-4.34S587.272,841.467,586.316,842.624Z" transform="translate(-418.965 -647.978)" fill-rule="evenodd"/><path d="M589.366,845.3a1.894,1.894,0,1,0,2.31.078A1.661,1.661,0,0,0,589.366,845.3Z" transform="translate(-420.776 -649.538)" fill="#ffc999" fill-rule="evenodd"/><path d="M233.5,977.993a12.573,12.573,0,0,0,13.66,10.73l129.16-12.516a21.408,21.408,0,1,0-6.329-42.339L243.045,963.981A12.568,12.568,0,0,0,233.5,977.993Z" transform="translate(-48.208 -694.578)" fill="#ffc999" fill-rule="evenodd"/><path d="M531.266,1011.032s29.638-3,33.45-16.193c3.452-11.947-8.054-16.826-8.054-16.826a74.483,74.483,0,0,0-24.462-8.958c-9.087-1.513-26.662-2.639-28.1,2.026-1.879,6.081,18.086,6.2,18.122,10.83.037,4.754-4.09,5.034-13.262,8.76-5.734,2.328-9.308.886-13.793,3.785C486.4,1000.125,496.713,1016.982,531.266,1011.032Z" transform="translate(-345.994 -711.931)" fill="#ffc999" fill-rule="evenodd"/><path d="M494.341,549.7a.855.855,0,0,0-.9.639l-.061.379c-.021.112-.053.255-.1.429a13.016,13.016,0,0,1-.749,2.1,26.7,26.7,0,0,1-5.313,7.483.855.855,0,0,0,.052,1.237l1.112.965c1.622,1.394,3.037,2.55,4.248,3.487l.855.651.884.638.057.039a.855.855,0,0,0,.953-1.42l-.411-.289-.463-.34q-.249-.185-.535-.4l-.294-.226c-1.056-.817-2.274-1.807-3.656-2.984l-.956-.822.358-.39a27.675,27.675,0,0,0,4.453-6.461l.217-.468a11.357,11.357,0,0,0,1.024-3.317A.855.855,0,0,0,494.341,549.7Z" transform="translate(-273.817 -499.645)" fill="#dd936f"/><path d="M479.5,654.259a.856.856,0,0,0-1.091-.521,34.809,34.809,0,0,1-16.765,1.771.855.855,0,1,0-.247,1.692,36.522,36.522,0,0,0,17.582-1.851A.855.855,0,0,0,479.5,654.259Z" transform="translate(-244.664 -552.453)" fill="#dd936f"/><path d="M887.773,595.628a.854.854,0,0,0-.031,1.208l.4.427.505.561q.266.3.555.63c1.1,1.263,2.2,2.614,3.219,3.995a41.212,41.212,0,0,1,2.615,3.94c2.446,4.256,2.649,6.975.323,7.945a.855.855,0,1,0,.658,1.578c3.682-1.535,3.4-5.333.5-10.374a42.848,42.848,0,0,0-2.724-4.106c-1.052-1.419-2.177-2.8-3.3-4.1l-.835-.944-.673-.731A.854.854,0,0,0,887.773,595.628Z" transform="translate(-873.927 -522.85)" fill="#dd936f"/><path d="M893.954,616.909a.855.855,0,0,0,.158,1.2l.416.328.533.432q.28.23.584.486c1.156.974,2.312,2.018,3.388,3.089a31.08,31.08,0,0,1,2.911,3.277c2.074,2.758,2.4,4.576.914,5.485a2.7,2.7,0,0,1-2.115.276,9.412,9.412,0,0,1-3.851-2.332,21.34,21.34,0,0,1-1.717-1.75l-.4-.469c-.109-.132-.194-.238-.251-.314a.855.855,0,0,0-1.36,1.036l.287.359c.121.147.268.32.438.514a23.039,23.039,0,0,0,1.855,1.891,10.922,10.922,0,0,0,4.61,2.729,4.394,4.394,0,0,0,3.4-.484c2.671-1.637,2.159-4.51-.441-7.97a32.8,32.8,0,0,0-3.071-3.462c-1.113-1.107-2.3-2.182-3.493-3.184l-.6-.5-.993-.794A.855.855,0,0,0,893.954,616.909Z" transform="translate(-883.419 -533.606)" fill="#dd936f"/><path d="M871.049,634.368a.855.855,0,1,0-.267,1.689c1.144.181,2.606,1.213,4.354,3.271,3.674,4.321,4.435,7.1,3.342,7.74-1.131.661-3.814-.561-5.538-3.027a.855.855,0,0,0-1.463.876,25.544,25.544,0,0,0,7.794,9.485l.781.553a43.025,43.025,0,0,0,5.408,3.076l.845.456c4.909,2.715,6.89,5.1,8.025,10.751a.855.855,0,0,0,1.676-.336c-1.281-6.379-3.68-9.111-9.309-12.149l-3.3-1.757a22.422,22.422,0,0,1-2.669-1.656,22.094,22.094,0,0,1-4.986-4.777l-.057-.08.21.087a4.165,4.165,0,0,0,3.245.08l.2-.108c2.437-1.425,1.381-5.284-2.9-10.322C874.451,635.881,872.673,634.625,871.049,634.368Z" transform="translate(-862.63 -542.637)" fill="#dd936f"/><path d="M878.12,612.947a.855.855,0,0,0-.9.644l-.023.137-1.037,12.517-.321.567-.238.443c-.491.929-.981,1.964-1.438,3.079a25.194,25.194,0,0,0-2.1,9.551,13.022,13.022,0,0,0,1.617,6.482.855.855,0,0,0,1.485-.848,11.333,11.333,0,0,1-1.392-5.643,23.572,23.572,0,0,1,1.977-8.893c.348-.849.717-1.649,1.089-2.388l.28-.541c.278-.526.492-.9.609-1.09a.845.845,0,0,0,.1-.246l.021-.132,1.053-12.716A.854.854,0,0,0,878.12,612.947Z" transform="translate(-846.495 -531.763)" fill="#dd936f"/><path d="M609.05,1020.814a.857.857,0,0,0-1.2-.177l-.22.158c-.266.182-.67.438-1.207.748a33.112,33.112,0,0,1-4.267,2.057,43.928,43.928,0,0,1-19.733,2.88.854.854,0,1,0-.125,1.7,45.628,45.628,0,0,0,20.5-2.992,35.313,35.313,0,0,0,4.488-2.166c.338-.2.642-.384.912-.556l.259-.167c.2-.133.343-.231.419-.29A.854.854,0,0,0,609.05,1020.814Z" transform="translate(-433.805 -738.708)" fill="#dd936f"/><path d="M596.794,1035.781a.858.858,0,0,0-1.137-.413q-.639.3-1.293.576a45.182,45.182,0,0,1-19.2,3.372l-.662-.03c-.382-.025-.644-.044-.774-.059a.856.856,0,0,0-.177,1.7l.486.039c.109,0,.232.015.369.025a47,47,0,0,0,20.625-3.475c.456-.192.907-.394,1.352-.6A.856.856,0,0,0,596.794,1035.781Z" transform="translate(-417.167 -746.234)" fill="#dd936f"/><path d="M578.554,1044.481a.859.859,0,0,0-1.173-.3l-.194.113c-.238.128-.61.31-1.119.531a32.51,32.51,0,0,1-4.234,1.486,60.793,60.793,0,0,1-13.263,2.062.855.855,0,0,0,.093,1.708,62.675,62.675,0,0,0,13.637-2.126,34.964,34.964,0,0,0,4.454-1.565,13.963,13.963,0,0,0,1.508-.743A.852.852,0,0,0,578.554,1044.481Z" transform="translate(-391.576 -750.691)" fill="#dd936f"/></g></svg>